<?xml version="1.0" encoding="utf-8"?>
<svg version="1.1" id="STATES" xmlns="http://www.w3.org/2000/svg" xmlns:xlink="http://www.w3.org/1999/xlink" x="0px" y="0px"
	 width="1030px" height="732px" viewBox="217 54.9 1030 732" style="enable-background:new 217 54.9 1030 732;"
	 xml:space="preserve">
<style type="text/css">
	.st1{fill:none;stroke:#000000;stroke-miterlimit:10;}
	.st0{fill:#d9d9d9;stroke:#FFFFFF;stroke-width:0.5;stroke-linejoin:round;stroke-miterlimit:10;}
        .red{fill:$red;stroke:#FFFFFF;stroke-width:0.5;stroke-linejoin:round;stroke-miterlimit:10;}
        .red-light{fill:$redLight;stroke:#FFFFFF;stroke-width:0.5;stroke-linejoin:round;stroke-miterlimit:10;}
        .blue{fill:$blue;stroke:#FFFFFF;stroke-width:0.5;stroke-linejoin:round;stroke-miterlimit:10;}
        .blue-light{fill:$blueLight;stroke:#FFFFFF;stroke-width:0.5;stroke-linejoin:round;stroke-miterlimit:10;}
</style>
<path id="WA" class="st0" d="M360.2,102.3l-1.2-1.7l-0.4-1.3l-1.3,0.1v-1.5l0.9,0.3l1.5,0.8l0.4-1.5l-0.7-1.3l1.3,0.7l0.3-1.3
	l-0.1-1.3l0.3-1.3l-1.3-0.7l-1.1-1.5v-0.5l-0.7-1.3l-0.1-1.3l1.1-0.9l19.4,5.2l22,5.5l25.4,5.9l13.7,2.8l-0.1,0.8l-10.4,48.7
	l-0.5,4.4l-0.7,1.3l0.9,2.8l-0.7,4.3l0.4,1.3l-17.5-3.6l-13.7-3.2l-1.5,0.8l-1.5-0.1l-1.5-0.5l-3.2-0.1l-1.1-0.4l-1.3,0.8l-4.4-0.1
	l-2.8,0.3l-2.7,0.7l-1.5,0.1l-1.3-0.3l-1.3-1.2l-1.5-0.4l-4.3,0.9l-1.3-0.5l-2.8,0.1l-0.3-1.3l-1.5-1.1l-1.3-0.3l-1.5-0.8l-2.4-0.1
	l-1.3-0.5h-1.3l-1.5,0.8l-1.3,0.3l-2.8,0.3l-1.3-0.1l-1.5-0.9l-0.7-0.1l-1.5-0.9l-2.1-0.9l-0.5-0.8l0.8-7.1l-0.7-2.8l-1.5-1.3
	l-0.8-1.3l-1.1-0.4l-1.3,0.1l-1.3-1.3l-0.4-1.3l-0.4-0.1l-0.7-0.4l-0.4-0.1l-1.3-0.3l-0.8-1.3l-2.9,0.7l-1.1-1.5l-1.3,0.1l1.7-7.1
	l0.3,1.5l-0.5,2.7l1.3-0.1v-0.7l1.1-1.5l-0.4-1.3l0.9-1.3l1.5,0.8h0.4l-0.5-1.3l-2.8-0.9l-0.7-1.3l0.5-2.5l0.7,0.7l1.8-0.6l0.9-0.8
	l-1.3-1.5l-1.1-0.5l-0.7,0.9l-0.5-0.4l0.5-1.5l0.4-4.2l-0.5-3.5l0.7-5.6l-0.1-1.5l-0.7-2.8l-1.1-1.6l-0.3-1.3v-1.5l0.4-1.3l-0.1-1.3
	l0.9-1.5l0.4-1.5l0.4-0.3l-0.4-1.9l1.5,0.8l2.5,2.5l1.5,1.2l1.5,0.8l0.9,1.3l2,1.2l2.7,0.8l1.5,0.9l2.8,0.7l1.6,1.1l2.8-0.5l0.4,1.3
	l0.1,1.5l1.5-0.5l1.1,0.7l1.5-1.1l-0.4,1.5l0.8,3.5l-0.9,1.5l-1.4,1l-2.5,2.3l-1.6,0.5l-2.7,2.4l-0.7,1.6l1.2,0.8l-0.3-1.5l2.8-2.7
	l2.8-0.8l1.2-1.5l3.2-2.9l0.7,1.3l-0.1,1.5l-1.1,0.8l-1.5-0.3l0.1,2.8l-1.3-0.4v1.5l1.3-0.3l0.7,1.3l-2.3,5.1l-1.5-0.9l-0.1-1.2
	l-0.9,1.3l-0.3,1.5l-0.7-0.8l0.7-1.3l0.3-1.5l-2.8,2l-1.2,3.1l0.8,1.1l0.3-1.5l1.5-0.7l0.8,1.5l1.3-0.1l1.3-1.1l0.8-0.9l2.7-1.1
	l1.3-1.3l-0.3-2.9l1.2-1.3l-0.9-1.5l1.3-0.9l-0.1-1.3l1.6-1.9l1.5-1.3l-0.1-1.5l-0.8-1.3L360.2,102.3z"/>
<path id="OR" class="st0" d="M296.8,226.7l-1.3-2.8l-0.3-5.5l0.8-1.7l0.3-1.3l1.1-1.5l0.4-1.5l-0.7-2.8v-2.8l2.7-3.5l2.4-5l1.1,0.2
	l1-1.9l0.5-1.5l1.6-2.7l1.4-1.1l0-1.6l0.8-1.5l2.8-7.1l0.8-2.8l0.8-1.3l0.9-0.7l0.1-0.5l-0.3-1.5l1.2-2.8l0.5-2.7l2.1-4l0.4-1.5
	l1.5-2.1l0.3-1.5l0.7-1.5l0.1-1.5l0.7-1.3l0.1-1.1l1.3,0.4l-0.9-1.3l0.7-1.5l1.2-1.3l-0.5-0.9l-0.1-1.5l0.7-1.3l0.3-1.3l-0.1-0.3
	l1.2-1.3l0.5-2.8l0.5-1.5l1.5,0.5l1.1,0.1l0.4,0.7l1.3,0.1l1.5-0.4l1.3,1.1l0.8,1.2l0.1,0.1l1.5,0.7l1.3-0.7l1.1,0.4l0.8,1.3
	l1.5,1.3l0.7,2.8l-0.8,7.1l0.5,0.8l2.1,0.9l1.5,0.9l0.7,0.1l1.5,0.9l1.3,0.1l2.8-0.3l1.3-0.3l1.5-0.8h1.3l1.3,0.5l2.4,0.1l1.5,0.8
	l1.3,0.3l1.5,1.1l0.3,1.3l2.8-0.1l1.3,0.5l4.3-0.9l1.5,0.4l1.3,1.2l1.3,0.3l1.5-0.1l2.7-0.7l2.8-0.3l4.4,0.1l1.3-0.8l1.1,0.4
	l3.2,0.1l1.5,0.5l1.5,0.1l1.5-0.8l13.7,3.2l17.5,3.6l0.3,1.9l0.7,1.5l0.5,0.8l2.7,2.5l0.5,2.8l-0.8,1.3l-3.2,3.6l-2.1,4.3l-2.4,2.7
	l-0.1,1.2l-0.8,1.5l-1.2,1.3l-2.3,1.5l-1.7,2.7l-1.3,1.3l-0.9,4.3l0.5,0.8l1.3,0.4l1.3,0.9l0.8,1.3l-1.1,1.5l-0.1,1.9l-1.2,2.8
	l-0.5,0.4l-0.7,1.1l-8,38.6l-19.4-4.1l-27.3-6.4l-29.5-7.5l-34.8-9.6L296.8,226.7"/>
<path id="CA" class="st0" d="M320,415.1l-1.5,0.3l-1.3-0.4l-0.7-1.3l1.5-0.7l1.3,0.1l0.8,1.1L320,415.1z M323,412.7l-0.3,1.1
	l0.1,1.3l1.5,0.5l2.8,0.1l1.3-0.9l-1.3,0.1l-2.8-1.3L323,412.7z M340.9,441.5l-0.8-1.5l0.1,1.5l0.7,2.8l1.2,1.3l1.3-0.1l-1.9-2.7
	L340.9,441.5 M342.3,430.5l1.2,1.5l1.3,2.8l2.1,0.3l-0.5-1.5l-1.3-1.3l-1.5-1.1L342.3,430.5z M340.9,441.5l-0.8-1.5l0.1,1.5l0.7,2.8
	l1.2,1.3l1.3-0.1l-1.9-2.7L340.9,441.5 M295.4,239.6l-3.3,6l0.3,1.3l-0.5,1.5l-0.9,1.3l-0.7,1.5l0.4,0.4l-1.3,0.9l-1.5,0.7l-0.8,1.3
	l-1.3,1.5l-1.2,2.8v2.3l-0.4,1.5l2.9,4.1v1.3l0.9,1.3l1.3,4.3l-0.1,1.3l0.3,1.5l-0.3,1.3v1.7l-0.9,1.3l-1.2,2.7l0.3,5.6l-0.3,2.1
	l-1.2,1.3l1.2,2.8l1.6,2.8l1.5,4.1l0.9,1.5l1.2,1.3l0.7,1.3l0.3,1.5l-0.1,0.9l0.4,0.2l0.3,0.8l0.9,1.9l-0.1,1.3l-0.5,0.6l-1.2,1
	l-0.5,1.5l1.5-0.9l1.5,1.6l0.4,1.3l1.5,0.9l0.8,1.5l1.3,1.3l1.2-0.8l-0.7-1.5l1.1-0.9l-0.3-1.5l0.7-1.5l1.5-0.5l1.3,1.2l1.1,1.5
	l1.3,0.4l1.2-0.3l1.3,0.1l1.3,1l2.5,0.5l1-0.5l0.1,0.7l-0.6,0.4l0.1,0.7l-0.9,0.1l-4.1-2l-2.1,0.1l-1.4-0.6l-1.2,0.1h-1.3l-0.8,1.5
	l0.9,1.3l-0.4,1.3l0.5,1.5l0.8,0.5l0.4,2.7v2.7l1.1,1.5l-1.3-0.3l-1.3-1.6l-0.8-1.5l-1.3-0.9l0.1-1.3l0.8-1.3l-0.1-1.5l-0.3-0.5
	h-1.5l-0.7,1.2l-0.1,1.3l-1.1,2.8l0.8,1.3l0.1,2.8l-0.4,1.3l-0.5,0.9v1.3l0.5,1.3l2.3,4.1l1.5,1.2l2.7,0.3l0.8,2.8v2.9l-0.7-0.3
	l-0.5,1.3l-2.8,1.3v2.9l-0.4,2.8l0.7,1.5l2.3,2.8l0.7,2.8l1.2,1.1l0.3,2.9l1.5,2.7l0.1,1.5l0.5,1.3l1.7,1.5l0.8,2.8l2.5,2.7l0.3,1.5
	l-1.1,0.9l-0.3,1.5l1.1,1.3l1.5,0.5l1.1,1.5l-0.1,1.3l-1.2,2v2.8l-0.8,1.3l0.3,1.5l-0.9,1.5l-0.1,1.5l0.9,0.3l0.9,1.5l1.2,1.3
	l4.2,0.7l1.3,0.5l1.5,0.3l2.7,1.9l1.3,0.5l2.8,0.3l2.3,1.7l1.1,1.3l1.3,1.2l0.4,2.8l3.1,2.5l2.8,1.7l5.5,0.9l0.3,0.3l1.1,2.8
	l0.1,1.3l-0.4,1.3l0.1,1.3l1.5,0.9l0.7-1.1l1.3,0.3l1.5,0.8l1.3,2.3l1.1,1.3l1.5,1.2l4.6,5.9l1.3,2.8l0.9,3.2l0.3,2.8l-0.3,2.8
	l-0.7,2.7l1.9,1.3l-0.5,1.3l-0.7-0.3l0.3,0.7l0.6,1.7l0.7,0.1l43,4.4l0.7-0.1l0.7-0.1l0.5,0.4l1.3,0.3l0.4-1.3l1.5-0.9l0.1-2.3
	l-0.3-1.3l-1.3-0.8l-1.5-0.5l-0.3-1.3l0.7-1.5l0.1-1.3l-0.5-1.6l0.7-1.3l1.5-0.9l2.4-2.9l0.5-1.9l0.8-1.3l0.1-2.7l0.7-2.5l1.3-0.8
	l0.7-1.3l4.7-2.5l1.2-1.3l-0.9-1.3l-2.7-2.8l0.1-1.6l-0.5-1.5l-0.1-1.3l-0.5-1.9l-1.6-2.9v-1.5l0.3-1.3l-21.4-31.6l-50.6-73.8
	l3.6-14.5l11.9-49.1l-29.5-7.5l-34.8-9.6l-0.7-0.1l-0.9,2.9l-0.8,1.3l0.9,1.6l-0.1,1.3l0.3,2.8l-0.3,0.3L295.4,239.6z"/>
<path id="ID" class="st0" d="M408.4,254.5l8-38.6l0.7-1.1l0.5-0.4l1.2-2.8l0.1-1.9l1.1-1.5l-0.8-1.3l-1.3-0.9l-1.3-0.4l-0.5-0.8
	l0.9-4.3l1.3-1.3l1.7-2.7l2.3-1.5l1.2-1.3l0.8-1.5l0.1-1.2l2.4-2.7l2.1-4.3l3.2-3.6l0.8-1.3l-0.5-2.8l-2.7-2.5l-0.5-0.8l-0.7-1.5
	l-0.3-1.9l-0.4-1.3l0.7-4.3l-0.9-2.8l0.7-1.3l0.5-4.4l10.4-48.7l0.1-0.8l10.8,2.3l3.2,0.7l-0.1,0.7l-4.1,20.6l2.3,4.2v0.7l1.2,2.8
	l0.3,1.5l-0.7,1.5l0.8,1.3l-1.5,0.3l2.3,2.7l0.5,1.3l2.1,1.2l0.4,1.3l0.9,1.3l0.5,1.5l1.7,2.8l1.1,1.3l-0.3,0.7l0.3,1.5l1.3,1.2
	l0.7,1.5h1.3l-0.3,1.3l1.3,0.8l1.9-0.1l1.3,0.5l-1.5,4.2l-1.5,2.8l-0.4,1.5l-1.1,1.3l0.4,1.3l-0.7,1.5l0.8,1.3l-0.5,2.8l-1.3,0.3
	l-0.8,1.3l0.4,1.5l-1.1,1.3l-0.4,1.5l1.6,0.5l1.3,1.9l1.3-0.3l5.6-3.1l0.3,1.2l1.3,1.3v2.8l0.5,3.7l1.1,2.8l1.1,1.3l0.4,1.5l0.1,1.3
	l-0.7,1.9l0.4,1.5l1.1,1.3l1.5-0.4l1.5,1.3l0.8,2.5l-0.4,1.3l0.8,1.3l-0.3,1.3l0.8,1.5l1.3,1.3l0.5-0.3l0.3-1.5l1.3-0.7l2.8,0.5
	l1.5,0.5h1.3l1.3-1.2l0.8-0.3l2.9,1.1h2.7l1.5,0.8l1.3-0.4l2.7,0.8v-0.9l2.3-2.8l1.3,0.4l0.9,2.5l0.8,1.5l1.3,1.3l-7.9,54l-18.7-2.8
	l-22.5-3.7l-6.2-1.2l-21.4-3.9L408.4,254.5"/>
<path id="NV" class="st0" d="M349.8,293.1l11.9-49.1l27.3,6.4l19.4,4.1l25.4,5.2l21.4,3.9L436,371.4l-3.1,17l-1.3,2L430,392
	l-1.5-0.3l-0.5-1.6l-1.2-1.3h-1.5l-1.3-0.9l-1.6,0.3l-1.6,1.1l-0.7,1.7l0.9,2.8l-0.8,1.3l-0.1,1.3l0.3,2.8l-0.5,1.9l-0.1,1.5
	l0.5,2.8l-0.3,3.2l-1.5,1.2l-0.3,3.1l-21.4-31.6l-50.6-73.8L349.8,293.1"/>
<path id="MT" class="st0" d="M452.3,140.7l0.7-1.5l-0.3-1.5l-1.2-2.8v-0.7l-2.3-4.1l4.1-20.6l0.1-0.7l21,4.2l36.9,6.3l32.4,4.7
	l21,2.5l22.4,2.5l28,2.5l10.4,0.8v0.5l-4.6,65.2l-1.2,18.9l-0.7,1.5l-20.6-1.6l-30.1-2.9l-27.2-3.2l-28-3.9l-1.3,0.9l-1.5,9.6
	l-1.3-1.3l-0.8-1.5l-0.9-2.5l-1.3-0.4l-2.3,2.8v0.9l-2.7-0.8l-1.3,0.4l-1.5-0.8h-2.7l-2.9-1.1l-0.8,0.3l-1.3,1.2h-1.3l-1.5-0.5
	l-2.8-0.5l-1.3,0.7l-0.3,1.5l-0.5,0.3l-1.3-1.3l-0.8-1.5l0.3-1.3l-0.8-1.3l0.4-1.3l-0.8-2.5l-1.5-1.3l-1.5,0.4l-1.1-1.3l-0.4-1.5
	l0.7-1.9l-0.1-1.3l-0.4-1.5l-1.1-1.3l-1.1-2.8l-0.5-3.7v-2.8l-1.3-1.3l-0.3-1.2l-5.6,3.1l-1.3,0.3l-1.3-1.9l-1.6-0.5l0.4-1.5
	l1.1-1.3l-0.4-1.5l0.8-1.3l1.3-0.3l0.5-2.8l-0.8-1.3l0.7-1.5l-0.4-1.3l1.1-1.3l0.4-1.5l1.5-2.8l1.5-4.2l-1.3-0.5l-1.9,0.1l-1.3-0.8
	l0.3-1.3h-1.3l-0.7-1.5l-1.3-1.2l-0.3-1.5l0.3-0.7l-1.1-1.3l-1.7-2.8l-0.5-1.5l-0.9-1.3l-0.4-1.3l-2.1-1.2l-0.5-1.3l-2.3-2.7
	l1.5-0.3L452.3,140.7"/>
<path id="WY" class="st0" d="M502.7,271.4l7.9-54l1.5-9.6l1.3-0.9l28,3.9l27.2,3.2l30.1,2.9l20.6,1.6l-3.1,43.4l-2.9,43.6l-25.4-2
	l-14.1-1.3l-26.4-2.8l-15.5-1.9l-32.4-4.4L502.7,271.4"/>
<path id="UT" class="st0" d="M436,371.4l19.3-107.8l6.2,1.2l22.5,3.7l18.7,2.8l-3.2,21.7l32.4,4.4l-11,86.9l-23.4-3.1l-22.6-3.3
	l-23.2-3.7L436,371.4"/>
<path id="AZ" class="st0" d="M407.5,461.3l0.7-0.1l0.7-0.1l0.5,0.4l1.3,0.3l0.4-1.3l1.5-0.9l0.1-2.3l-0.3-1.3l-1.3-0.8l-1.5-0.5
	l-0.3-1.3l0.7-1.5l0.1-1.3l-0.5-1.6l0.7-1.3l1.5-0.9l2.4-2.9l0.5-1.9l0.8-1.3l0.1-2.7l0.7-2.5l1.3-0.8l0.7-1.3l4.7-2.5l1.2-1.3
	l-0.9-1.3l-2.7-2.8l0.1-1.6l-0.5-1.5l-0.1-1.3l-0.5-1.9l-1.6-2.9v-1.5l0.3-1.3l0.3-3.1l1.5-1.2l0.3-3.2l-0.5-2.8l0.1-1.5l0.5-1.9
	l-0.3-2.8l0.1-1.3l0.8-1.3l-0.9-2.8l0.7-1.7l1.6-1.1l1.6-0.3l1.3,0.9h1.5l1.2,1.3l0.5,1.6l1.5,0.3l1.6-1.6l1.3-2l3.1-17l15.7,2.8
	l23.2,3.7l22.6,3.3l23.4,3.1l-15.4,122.1l-0.1,0.7l-9.1-1.1l-27.4-3.9l-23.6-13.3l-36-20.8l-4.3-2.5l0.5-1.5L407.5,461.3"/>
<path id="NM" class="st0" d="M505.3,507.1l0.1-0.7l15.4-122.1l28.4,3.3l25.3,2.5l30.5,2.5l19.3,1.2l-0.7,11l-0.8,0.3l-0.1,1.5
	l-3.2,52.5l-1.7,19.8l-1.5,22.6l-1.2,1.3h-0.7l-16.1-1.1l-15.9-1.3l-17.9-1.5l-13.9-1.5v0.7l0.8,2.7l0.8,1.1v0.5h-0.1l-29.6-3.2
	l-0.8,1.7l-0.8,7.2l-1.3,0.5L505.3,507.1"/>
<path id="CO" class="st0" d="M520.9,384.4l11-86.9l15.5,1.9l26.4,2.8l14.1,1.3l25.4,2l14.9,1.1l15.9,0.8l1.5,0.8l-1.1,21.2
	l-3.2,65.7l-16.9-1.1l-19.3-1.2l-30.5-2.5l-25.3-2.5L520.9,384.4"/>
<path id="TX" class="st0" d="M552.2,502.6V502l-0.8-1.1l-0.8-2.7v-0.7l13.9,1.5l17.9,1.5l15.9,1.3l16.1,1.1h0.7l1.2-1.3l1.5-22.6
	l1.7-19.8l3.2-52.5l0.1-1.5l0.8-0.3l23.7,1.3l17.8,0.8l7.2,0.1l1.5,0.1l1.6,0.8l-1.2,38.8l-0.1,2.4l1.3,0.1l1.5,1.1l2.4,2.7l1.2,0.7
	l1.5-0.7l1.5,0.5l1.3-0.1l0.7-1.5l0.4,0.8l1.3,0.7l0.9,1.3v1.3l0.4,1.5h1.5l0.7,0.3l1.3-0.4l1.5,0.9l2.8,0.9l1.3-0.3h1.5l0.7,0.9
	l1.1,0.9l1.5-0.4l1.3-1.1l2.8,0.3l1.5-0.1l-0.1,1.5l0.8,1.3l1.5,0.3l0.3,0.8l0.1,1.9l1.3,0.3l1.3-0.5l2.1-2.1l1.5,0.5l0.5,1.3h1.3
	l0.5,1.3l1.3,0.3l2.3-1.1l1.3,0.1l-0.5,1.3l0.5,1.5l0.4,0.3l0.9-0.1l0.5-2.7l1.5-0.9l0.1-0.9l0.4-0.3l1.3,0.5l1.2,1.3l1.3,0.5
	l1.3-1.1l1.3,0.1l0.9,1.5l1.3,0.8l1.5,0.5l1.3,1.2l0.7-1.3h1.5l1.6-1.7l1.5-0.1l1.3-1.1l1.3,0.9h1.5l1.2-0.9l2.7-1.1l1.5,1.3
	l0.9,0.3h1.5l0.9-0.5l0.8-1.3h1.3l3.2,2l2.7,2.1l1.3,0.4l1.5,0.9l3.9,0.8l0.5,0.4l0.1,0.5l1.3,1.1l1.5-0.9l4.4,0.8l0.4,11.8
	l0.7,22.1l2.4,2.1l0.9,1.3l1.1,2.8l-0.3,2.1l1.1,1.3l0.7,1.5l0.5,0.3l0.7,1.3v1.5l2.3,2.8l0.5,0.1l-0.1,1.3l0.4,1.5l-0.7,1.1
	l0.5,1.3l-0.5,1.3l0.3,1.5l-0.8,1.3l-0.3,1.5l-1.1,1.3l-0.7,1.5l0.4,2.7l-0.9,1.5l0.7,1.7l0.7,3.3l-0.4,1.6l-1.3,1.5l-0.2,0.6
	l-1.2,0.6l-1.6,2.8l2,2.9l-4.2,0.4l-4.4,2l-4,2.1l-1.5,0.5l-1.3,0.8l-1.5,1.5h-0.4l0.8-1.5l3.1-2.1l1.5-0.3l0.3-0.4h-2.7l-2.9,0.8
	l1.1-2.8v-2.3l-1.3-0.3l-1.3,1.1l-0.8,1.5l-2-1.2l-0.7,0.5l0.7,1.5l-0.1,1.3l1.3,1.1v2l1.5,0.5l-0.7,1.7l-1.3,0.7l-0.9,1.3l-2.3,1.6
	l-0.3,2.4l-2.7,2.5l-1.3,1.1l-2,0.9l-2.7,1.9l-2.7,0.3l-2.8,0.9l0.3,1.3l1.3-0.9l1.5-0.3l-1.5,1.5l-2.8,1.1l-3.6,2.1l-0.6-0.7
	l2.8-1.6l0.4-1.3l-3.3,0.4l-0.5-1.3l-1.5,0.9l-1.3-0.7l0.1,1.3l-1.3,0.5l-2.1-1.7l-0.3-0.9l-1.5,0.1l1.5,2.8l1.3,0.9l-0.8,1.3
	l1.5-0.4l1.3,0.8l-0.3,0.5l-4.2,2.3l-1.3-0.5l-1.4-0.7l-0.2,1.3v1.5l-1.6,1.9l-1.3,0.7v-1.3l-1.2,1l-0.6-0.7l-1.3,0.7L724,590
	l-0.1,0.8l-0.3,1.2l1.3,1.2l0.7-1.3l1.3-0.9v1.2l-0.8,1.5l-2.7,3.7l-1.3-1.3l-2.9,0.3l-1.5,0.4l0.8,0.5l1.3-0.4v1.1l1.1,1.3l0.7,0.4
	l0.4,1.3l-2.8,7l-1.5,0.4l0.8-0.8l-1.3-0.4l-0.9,0.4l-1.3,0.1l-1.2,1.3l2.8,0.8l2.7-0.7l-0.4,1.3v1.5l-0.7,1.3l-0.1,1.5h-1.3
	l-0.1,1.3l1.5,1.7l-1.3-0.5v1.3l1.3,1.3l1.1,4.8l-0.1,1.5l2.3,4.7l0.4,2.8l0.9,1.3H721l1.1,1.9l2.3-1.3l0.3,1.6l-0.7,0.1l-3.5,0.9
	v1.3l-1.3,0.1l-1.7-1.1l-2.7-2.7l-1.3-0.3l-1.3-0.7l-3.2,0.1l-5.6-0.5l-1.2-0.5l-2.7-2.5l-1.5-0.1l-1.3-0.7l-1.5,0.3l-0.8-0.5
	l-0.9-1.3l-1.3-0.9l-0.8,0.1l-1.3-0.7l-2.8-0.3l-0.8-0.4l0.3-1.3l-1.5-1.3l-0.4-2.9l-1.1-2.9l-1.1-1.5l-1.5-2.7l-1.1-1.3l-0.1-1.3
	l0.3-1.3v-1.5l-1.5-1.1l0.7-1.5l0.1-1.5l-0.5-1.3l0.1-1.3l-0.4-0.7l-1.3-1.1l-2.3-0.7l-2.7-3.7l-0.3-1.3l-1.1-1.5l-1.2-0.9l-0.4-1.3
	l-1.2-2l-1.3-0.5l-1.5-1.2l-1.3-2.8l-0.7-2.8l0.4-0.4l-1.2-1.5l-0.7-1.3l-0.9-1.2v-0.5l-0.5-1.3l-1.6-2.9l-0.8-3.6l-1.1-1.3
	l-1.6-2.8l-4-3.1l-0.1-1.2l-1.3-0.7l-1.5-1.2l-0.5-1.3l-1.3,0.3l-0.3-1.1l-1.1-1.2l-0.5-1.3l-1.3-1.1l-1.3-0.5l-1.5,0.9l-3.7-1.1
	h-1.5l-4.1-0.4l-2.4-1.3h-1.3l-0.8,1.3l-1.3,0.4l-1.3-0.1l-1.5,0.7l-1.3,0.1l-0.7,0.7l-1.2,1.7l-2.3,5.6l-0.8,0.5l-0.3,1.5l-0.5,1.3
	l-1.3,0.5l-0.8,1.3l-1.5,0.9l-0.4,1.2h-2.3l-1.3-0.3l-0.1-0.5l-1.3-0.1l-1.3-1.1l-1.3-1.5l-3.7-1.7l-0.7-1.5l-2.8-0.7l-1.3-0.5
	l-3.2-2.9l-0.9-1.3l-1.3-0.9l-1.3-0.5l-1.9-1.9l-2.9-7l-0.1-2.7l0.4-1.5V540l-0.8-1.3l-1.2-2.8l-0.7-0.5l-0.4-2.8l-0.5-1.3l-1.1-0.7
	l-0.3-1.3l-1.3-0.7l-2.8-2.5l-1.3-0.5l-1.5-1.1l-2.4-2.8l-0.7-1.5l-2.7-2.7l-2.7-3.6l-1.3-1.3l-2.7-1.5l-1.3-1.1l-1.2-2.7l-0.3-1.3
	l-0.8-1.3l-1.3-1.1l-0.7-0.1l-0.1-0.1L552.2,502.6"/>
<path id="OK" class="st0" d="M623.7,405l0.7-11l16.9,1.1l27.4,1.2l39,0.9h39.2l21.4-0.4l0.3,10.8l3.1,18.3l0.7,6l0.3,38l-3.9-0.8
	l-1.5-0.9l-1.3-0.4l-2.7-2.1l-3.2-2h-1.3l-0.8,1.3l-0.9,0.5h-1.5l-0.9-0.3L753,464l-2.7,1.1l-1.2,0.9h-1.5l-1.3-0.9l-1.3,1.1
	l-1.5,0.1l-1.6,1.7h-1.5l-0.7,1.3l-1.3-1.2l-1.5-0.5l-1.3-0.8l-0.9-1.5l-1.3-0.1l-1.3,1.1l-1.3-0.5l-1.2-1.3l-1.3-0.5l-0.4,0.3
	l-0.1,0.9l-1.5,0.9l-0.5,2.7l-0.9,0.1l-0.4-0.3l-0.5-1.5l0.5-1.3l-1.3-0.1l-2.3,1.1l-1.3-0.3l-0.5-1.3h-1.3l-0.5-1.3l-1.5-0.5
	l-2.1,2.1l-1.3,0.5l-1.3-0.3l-0.1-1.9l-0.3-0.8l-1.5-0.3l-0.8-1.3l0.1-1.5l-1.5,0.1l-2.8-0.3l-1.3,1.1l-1.5,0.4l-1.1-0.9l-0.7-0.9
	h-1.5l-1.3,0.3l-2.8-0.9l-1.5-0.9l-1.3,0.4l-0.7-0.3h-1.5l-0.4-1.5V455l-0.9-1.3l-1.3-0.7l-0.4-0.8l-0.7,1.5l-1.3,0.1l-1.5-0.5
	l-1.5,0.7l-1.2-0.7l-2.4-2.7l-1.5-1.1l-1.3-0.1l0.1-2.4l1.2-38.8l-1.6-0.8l-1.5-0.1l-7.2-0.1l-17.8-0.8L623.7,405"/>
<path id="KS" class="st0" d="M641.2,395.1l3.2-65.7l21,1.1l40.7,1.1l21.3,0.1l27.7-0.3l3.9,2.9l1.3-0.9l1.1,0.4l0.9,1.5l0.3,1.5
	l-0.1,0.4L761,337l-0.5,1.3l-1.6,2.3l0.5,1.3l1.3,1.7l1.6,1.1v1.5l2.1,2.7l1.2,0.4l1.5,1.1l1.1,46.5l-21.4,0.4h-39.2l-39-0.9
	L641.2,395.1"/>
<path id="NE" class="st0" d="M613.2,305.5l2.9-43.6l16.3,1.2l27.3,1.5l26.4,0.9l17.5,0.3l1.7,1.7l5.9,3.2l1.5-0.5l1.1-1.3l2.8,0.4
	l6.2-0.7l2.3,2l1.3,0.1l1.5,0.7l0.1,0.4l1.3-0.1l1.3,1.3l1.5,0.5l0.7,1.5l1.3,1.2l1.3,0.4l1.3,0.3l0.1,1.6l-0.3,0.9l0.8,1.5l0.4,1.3
	l-0.1,1.3l1.2,1.5l0.1,1.3l1.9,2.4v1.3l0.9,1.5l0.3,1.3l-0.3,1.3v1.5l0.3,1.3l-0.1,0.5h1.3v1.3l1.3,0.7l-0.3,1.6l0.8,1.3l-0.4,1.7
	l1.1,1.3l-0.3,1.5v1.7l0.8,2.9l-0.7,4.1l1.3,0.9l0.4,1.3v1.5l1.2,1.3l0.9,2.7l1.2,1.3l1.3,0.9l0.3,1.5l1.1,1.3l-0.1,1.3l1.6,1.2
	l-27.7,0.3l-21.3-0.1l-40.7-1.1l-21-1.1l1.1-21.2l-1.5-0.8l-15.9-0.8L613.2,305.5"/>
<path id="SD" class="st0" d="M616.2,261.9l3.1-43.4l0.7-1.5l1.2-18.9l26.9,1.7l30,1.3l27.8,0.7l28.2,0.1l-0.8,2.8l-0.8,1.5l-1.3,0.8
	l-1.3,1.3l-0.4,1.1l1.1,1.2l1.6,2.8l1.3,0.3l1.3,0.8l0.9,1.3L736,255h-2.4l0.4,1.6l0.8,1.3l-0.1,1.5l-0.7,0.3l0.4,1.5l1.5,1.3v1.3
	l-0.8,1.3l0.1,1.5l-0.9,2.7l-0.4,0.3l-0.7,1.3l0.4,1.5l1.3,1.2l0.7,2.9l-1.3-0.4l-1.3-1.2l-0.7-1.5l-1.5-0.5l-1.3-1.3l-1.3,0.1
	l-0.1-0.4l-1.5-0.7l-1.3-0.1l-2.3-2l-6.2,0.7l-2.8-0.4l-1.1,1.3l-1.5,0.5l-5.9-3.2l-1.7-1.7l-17.5-0.3l-26.4-0.9l-27.3-1.5
	L616.2,261.9"/>
<path id="ND" class="st0" d="M621.1,198.1l4.6-65.2v-0.5l22.6,1.5l34,1.5l29,0.7h12.9l-0.3,0.7v0.1l0.5,1.1l0.9,4l0.5,1.3l-0.8,2.7
	l0.4,2.5l-0.3,1.3l0.3,0.8l-0.1,2.7l0.3,1.5l1.6,4.6l-0.3,0.8l1.9,4.1l0.7,2.9v1.5l-0.3,1.3l0.4,1.3v2.8l0.4,2.9l-0.1,2l0.8,1.5
	l-0.3,1.3l0.1,5.2l0.7,1.3l-0.1,1.5l0.5,1.3l1.6,2.3l0.3,1.3v1.5l0.4,2.8l-0.1,1.3l0.3,1.5l-28.2-0.1l-27.8-0.7l-30-1.3L621.1,198.1
	"/>
<path id="MN" class="st0" d="M724.2,136h18.6l11-0.3l0.3-1.3l-0.1-6.7l0.9,0.4l2.7,0.3l1.2,1.3l0.8,4.3l1.2,4l-0.1,2l1.2,1.3
	l1.3,0.5h2.8l1.3,0.9l6,0.7l0.4,1.3l1.5,0.8l3.5-0.8l0.8-1.3l0.9-0.1l0.4-0.3l0.4-0.1l1.3-0.1h3.1l5.6,2.3l-0.4,1.5l1.5-0.1l1.3,1.2
	l0.1,1.3l0.8,0.9l1.5,0.7l0.4-2.1l2.1-0.3l1.5,0.4l0.5,1.3l4,1.7l0.3,1.1l2.5,1.3l1.7,0.1l2.8-1.2l1.3-1.3l2.8-1.9l1.5-0.1l-0.1,0.9
	l0.8,0.4l0.4,1.3h1.3l1.5-0.4l2.8,0.1l1.5-0.4l2.8-0.3l1.3,1.3l0.1,0.4l1.3,0.7l1.5-0.7h3.3l-1.3,0.9l-1.3,1.3l-1.3,0.8l-4.6,2.4
	l-1.5,0.4l-2.7,1.2l-4.3,2.5l-5.2,5.1l-1.5,2.3l-3.6,4.1l-1.5,1.2l-0.8,1.1l-1.3,1.2l-4.2,3.3l-0.7,1.1l-0.5,0.7l-0.1,0.1l-0.7,1.5
	l-1.2,0.1l0.5,11.1l-0.3,1.6l-0.8,1.2l-2.7,1.3l-2.8,2l-0.3,1.3l-0.8,1.5l-1.1,1.2v1.5l0.9,1.5l1.3,0.1l1.6,2.8l-1.5,3.6l0.3,2.7
	l-0.7,1.5l0.8,2.9l-0.1,2.4l-0.7,1.5l2.3,1.6l1.3,1.3l1.5,0.7l2.4,0.4l0.9,1.5l1.3,0.8l1.9,0.7l2,1.3l1.9,2.9l2.7,2.4l1.5,0.8
	l1.3,0.3l1.3,0.9l1.3,1.3l1.2,1.7l0.5,3.7l0.4,1.5l-0.1,0.5l0.5,1.5l-16.3,0.9l-22.5,0.9l-27,0.7L736,255l-0.3-39.1l-0.9-1.3
	l-1.3-0.8l-1.3-0.3l-1.6-2.8l-1.1-1.2l0.4-1.1l1.3-1.3l1.3-0.8l0.8-1.5l0.8-2.8l-0.3-1.5l0.1-1.3l-0.4-2.8v-1.5l-0.3-1.3l-1.6-2.3
	l-0.5-1.3l0.1-1.5l-0.7-1.3l-0.1-5.2l0.3-1.3l-0.8-1.5l0.1-2l-0.4-2.9v-2.8l-0.4-1.3l0.3-1.3v-1.5l-0.7-2.9l-1.9-4.1l0.3-0.8
	l-1.6-4.6l-0.3-1.5l0.1-2.7l-0.3-0.8l0.3-1.3l-0.4-2.5l0.8-2.7l-0.5-1.3l-0.9-4l-0.5-1.1v-0.1L724.2,136"/>
<path id="MI" class="st0" d="M926.8,188.1l-1.3-0.7l1.3-0.4l1.3-1.1l-0.5-1.5h1.3l1.5,1.3l0.8,1.3l-1.5,0.9l-2.8,0.3L926.8,188.1z
	 M957,249.8l0.4-0.5l-0.1-1.1h-0.1l-1.3-2.3l-0.7-1.6l-0.8-2.9l-0.8-2.8l-0.8-1.3l-1.5-5.5l-1.6-2.8l-1.3-1.3l-1.3-0.5l-1.5-0.3
	l-2.1,1.6l-1.3,0.5l-1.5,1.3l-1.3,0.5l0.3,1.3l-0.7,2.4l-1.3,1.1l-0.7,1.3l-1.1,1.5l-1.3-0.5l-1.5-0.1l-1.7-1.6L931,234l0.3-2.8
	l1.5-1.1l1.5-0.3l1.3-2.1l0.1-2.8l0.4-1.3l1.3-0.8l1.3-1.3l-0.5-4.4l0.1-2.8l-0.7-2.8l-0.7-1.3l-1.5-0.9l-0.8-1.3l0.5-1.7l1.3-0.3
	v-1.3l-0.8-0.5l-1.1-1.3l-0.4-1.3l-1.5-0.9h-1.3l-1.5-0.7l-2.9-0.8l-1.3-0.7h-1.5l-1.3-0.4l-0.8-1.3l-1.3-0.8l-1.3-0.4l-1.2,0.3H917
	l-1.3-1.1l-1.3-0.4l-1.5-0.8l-1.2,1.1l-1.3,0.7l-0.8,1.5l-1.3,1.6v1.3l0.7,1.5l1.3,0.8l0.1,1.2h-1.9l-1.5,0.8l-1.3,1.1l-0.9,1.3
	l0.7,4.3v1.6l-0.3,1.3l-0.4,1.5l-1.2,1.3l0.4-1.3v-2.8l-0.5,0.1l-0.4,2.8l-0.9,1.3l-0.3-1.3l0.5-1.3l-0.7-1.5l0.4-0.9l0.4-3.9
	l-1.3,1.1l-0.5,1.3l-0.9,1.3l-0.3,1.3l-1.1,1.3l-1.3-0.4l-1.7,2.5l0.1,1.3l-1.2,1.3l-1.3,1.1l0.8,2.7l-0.3,2.4l0.3,1.3l-0.1,1.5
	l-1.6,4.1l-1.2,1.5l-0.1,1.3l0.8,1.3l1.1,4.1l-0.9,1.5l-0.5,1.3l0.3,1.3l3.9,7.4l1.3-0.5l-0.8,1.3l1.9,4.3l0.8,5.6v4.1l-0.8,5.1
	l-0.5,1.5l-1.5,2.8l-1.2,4.1l-0.7,1.3l-0.9,1.5l-1.3,1.3l-0.5,0.4h0.7l7.9-0.8l22.6-2.8l1.6,1.2l14.6-2.4l6.6-1.3l0.9-2.8l2.4-4.1
	l0.1-4.1l0.4-1.3l0.4-0.7l0.1-0.3l1.6-1.2l1.1-1.3l-0.1-2.9l0.9-1.3l0.3-1.2l1.5-0.8l0.7,0.9l0.4,1.3l-0.3,0.4l0.9-0.4l0.8-1.3
	l0.3-2.9l-0.4-1.3L957,249.8z M892.2,192l1.3,0.1l2.7-0.8h1.5l1.3-0.8l1.2-2.1l2.7-0.4l1.5,0.4l1.3-0.1l2.8,0.9l2.9,2.4l1.3,0.5
	v-2.5l0.4-1.5l1.3-0.3l1.3,0.8l1.3-0.5l6.6,0.1l1.3-0.4l-0.8-1.3l-1.5-0.7l-0.1-1.3l-1.3-0.7H921l-1.3-0.9l-0.1-1.5l-0.4-1.3
	l-0.8-1.5l-1.2-1.3l-1.1,0.3l-0.1,0.1l-0.8,1.2l-1.3,0.7l-0.9-1.3l-2.8,1.1l-2.7-0.4l-0.7-1.2l-0.1-5l-2.7,0.4l-1.3,0.5l-2.7,1.6
	l-1.3,0.4l-5.6,0.4l-1.3,0.5l-2.4,0.5l-1.3,1.3l-2.8,1.7l-2.1,2.8l-1.2-0.5l-1.3,0.1l-1.5-0.3l-1.3-1.2l-3.2,1.2l-1.3,0.1l-1.5-0.7
	l-0.8-1.5l-2.5-2.7l-0.8-1.5l-1.3-0.3l-1.3-1.2l-1.5-0.3h-2.8L859,175l-0.9,1.3l-0.7,0.4l1.2-2.8l-1.3,1.3l-1.3,0.8l-0.4,1.3
	l-0.5,0.5l-0.4-1.3l0.3-2.8l0.5-0.4l2-3.7l2.4-2.8l1.3-1.2l0.3-1.5h1.9l1.3-0.9l-1.3-0.9l-2.8,0.1l-3.1,0.9l-2.7,1.7l-2,2.8l-2,1.2
	l-2.9,3.3l-0.8,1.3l-2.8,1.2l-1.5,1.5l-1.3,0.9l-1.3,0.5l-1.5,0.1l-1.3,0.4h-1.5l-1.5,0.8l-2.5,2.8l-4.2,1.9l-1.3,0.8l0.7,0.7
	l1.5,0.5l1.3,1.1l1.6,2.7l14.7,2.8l4.8,2.1l0.5-0.1l2.8,0.4l1.3-0.4l1.5,0.5l3.6,0.4l1.3,0.8l0.3,2.5l1.3,0.1l2.1,0.7l1.5,1.3
	l-0.4,0.4l0.7,1.3l-0.3,2.8l-0.5,1.3l0.5,1.2l1.3-0.4l1.5-0.1l-0.8,2.8l0.1,1.3l1.3,1.2h0.1l0.7,0.3l-0.1-1.3l1.5-2.3l2-4.1l0.8-2.8
	l0.8-1.5l1.2-1.5l0.5-2.7l1.2-2l-0.5,1.3l0.5,1.5l0.8,1.3l1.3-1.2l0.3-0.8l1.3-1.5l1.3-0.5l1.3,0.3l-0.1,1.5l-1.3,1.1l-0.7,1.7
	l1.3,0.1l0.9-1.5l1.3-1.3l1.5-1.1l0.1-1.6l0.8-1.3l1.1-0.7L892.2,192z"/>
<path id="WI" class="st0" d="M800.5,182.2l1.3,1.3l1.5,0.3l1.3-0.3l5.5-2l2.7-1.6l1.5-0.4l1.5-0.8l1.3-1.1l1.7-0.8l1.5,1.1l-0.3,1.5
	l-0.9,1.3v1.3l-0.4,1.3l-0.5,0.9h1.5l1.3-0.8l1.5,0.3l1.3,0.7l2.4,0.3l0.7,0.7l1.5,0.5l1.3,1.1l1.6,2.7l14.7,2.8l4.8,2.1l0.5-0.1
	l2.8,0.4l1.3-0.4l1.5,0.5l3.6,0.4l1.3,0.8l0.3,2.5l1.3,0.1l2.1,0.7l1.5,1.3l-0.4,0.4l0.7,1.3l-0.3,2.8l-0.5,1.3l0.5,1.2l1.3-0.4
	l1.5-0.1l-0.8,2.8l0.1,1.3l1.3,1.2h0.1l0.7,0.3l-0.4,1.3v0.9l-1.3,0.9l-1.5,0.5l-0.1,1.3l-0.8,1.5l-1.1,2.8l-0.4,1.7l0.3,1.3
	l1.3,0.1l0.7-1.3l1.3-1.1l0.9-1.5l0.3-1.3l0.8-1.3l1.3-0.5l1.5-1.1l1.2,1.3l0.7,1.5l-0.3,1.3l-1.5,4l-0.3,2.7l-0.4,1.5l1.1,2.8
	l-0.1,0.7l-1.3,1.1l-0.7,1.5l-0.7,2.8v1.3l0.7,2.9v1.5l-0.8,1.5l-0.3,1.5l0.1,1.3l-0.9,2.9l-0.3,2.7l0.9,3.1l-0.4,1.3l1.2,1.5v1.3
	l0.9,1.3l0.4,1.3v1.5l-0.3,1.3l0.4,2.9h-0.7l-19.1,1.7l-25.3,1.5l-1.1-2.8l-4.2-0.8l-1.5-0.7l-0.7-1.3l-0.3-1.7l-0.9-1.3l-0.3-2.4
	l-0.5-2.1l1.3-2.8l-0.7-1.3l-1.1-0.4l-0.5-1.5l-0.4-0.5l0.1-1.1l-0.5-1.5l0.1-0.5l-0.4-1.5l-0.5-3.7l-1.2-1.7l-1.3-1.3l-1.3-0.9
	l-1.3-0.3L810,240l-2.7-2.4l-1.9-2.9l-2-1.3l-1.9-0.7l-1.3-0.8l-0.9-1.5l-2.4-0.4l-1.5-0.7l-1.3-1.3l-2.3-1.6l0.7-1.5l0.1-2.4
	l-0.8-2.9l0.7-1.5l-0.3-2.7l1.5-3.6l-1.6-2.8l-1.3-0.1l-0.9-1.5v-1.5l1.1-1.2l0.8-1.5l0.3-1.3l2.8-2l2.7-1.3l0.8-1.2l0.3-1.6
	l-0.5-11.1l1.2-0.1l0.7-1.5l0.1-0.1L800.5,182.2 M875.2,215l-0.5,2.1l0.7,1.3l1.3,0.3l0.9-1.3l0.5-1.3v-1.3l1.2-1.9l-0.3-1.3
	l1.2-2.8l-0.4-0.4l-1.3,1.1l-0.8,1.3l-1.3,1.5l-0.1,1.5L875.2,215z"/>
<path id="IA" class="st0" d="M735.6,276.6l-0.7-2.9l-1.3-1.2l-0.4-1.5l0.7-1.3l0.4-0.3l0.9-2.7l-0.1-1.5l0.8-1.3v-1.3l-1.5-1.3
	l-0.4-1.5l0.7-0.3l0.1-1.5l-0.8-1.3l-0.4-1.6h2.4l16.2-0.1l27-0.7l22.5-0.9l16.3-0.9l-0.1,1.1l0.4,0.5l0.5,1.5l1.1,0.4l0.7,1.3
	l-1.3,2.8l0.5,2.1l0.3,2.4l0.9,1.3l0.3,1.7l0.7,1.3l1.5,0.7l4.2,0.8l1.1,2.8l-0.1,0.3l1.1,1.2l2.8,2.1l0.3,1.7l1.3,1.1l1.5,0.8
	l1.3,1.3l0.5,1.5l-0.5,4.3l-1.9,2.5l-0.3,2.9l-1.3,1.2l-2.8,1.1l-1.3,1.1l-5.2,1.1l-0.5,1.5l-0.4,2.8l2.5,2.7l0.3,2.9l-2,2.7
	l-0.3,0.9v1.5l-0.4,1.3l-3.3,1.7l-1.1,1.3l0.9,1.3l-0.1,1.5l-0.9,0.9l-0.7-0.3l-1.1-1.5l-2.7-2l-0.8-1.5l-10.8,1.2l-25.2,1.5
	l-11.5,0.3l-18.2-0.1l-0.4-1.3l-1.3-0.9l0.7-4.1l-0.8-2.9v-1.7l0.3-1.5l-1.1-1.3l0.4-1.7l-0.8-1.3l0.3-1.6l-1.3-0.7v-1.3h-1.3
	l0.1-0.5l-0.3-1.3v-1.5l0.3-1.3l-0.3-1.3l-0.9-1.5v-1.3l-1.9-2.4l-0.1-1.3l-1.2-1.5l0.1-1.3l-0.4-1.3l-0.8-1.5l0.3-0.9l-0.1-1.6
	L735.6,276.6"/>
<path id="IL" class="st0" d="M818.6,320.6l0.9-0.9l0.1-1.5l-0.9-1.3l1.1-1.3l3.3-1.7l0.4-1.3V311l0.3-0.9l2-2.7l-0.3-2.9l-2.5-2.7
	l0.4-2.8l0.5-1.5l5.2-1.1l1.3-1.1l2.8-1.1l1.3-1.2l0.3-2.9l1.9-2.5l0.5-4.3l-0.5-1.5l-1.3-1.3l-1.5-0.8l-1.3-1.1l-0.3-1.7l-2.8-2.1
	l-1.1-1.2l0.1-0.3l25.3-1.5l19.1-1.7h0.7l0.1,1.3l-0.1,2.8l0.3,1.3l1.5,2.7l1.3,1.2l0.4,2.1l0.8,1.5l0.4,1.3l1.5,2.1v0.7l4.8,50.7
	l-1.3,1.5l0.7,1.3l-0.8,1.5l0.1,1.5l1.1,1.7l1.2,1.3l-0.3,1.5l0.9,2.8l-0.3,1.5l-0.4,0.3l-1.5,2.7l-0.1,1.5l-1.7,2.9l-1.1,1.3
	l-1.3,1.2l-0.3,1.5l0.3,0.3l-0.4,2.8l-0.3,0.1l-0.1,2.7l-0.7,1.3l0.9,1.5v0.5l-0.5,1.3l-0.9,1.3l0.3,1.5l1.1,1.5l-0.9,1.3l-2.7,0.7
	l-1.5,0.9l-1.3,0.5l-0.4,1.3l0.3,1.5l1.1,1.3l0.4,1.3l-1.1,1.7l-1.3-0.3l-1.2-0.8l-2.7-0.8l-1.3-0.7l-1.5-0.3l-1.3,0.5l-2,2.7v1.5
	l0.8,0.8l-2-1.1l-1.3,0.7l-2.1-2.8l-1.7-2.8l0.9-1.5l0.3-1.5l-1.6-2.7l-0.3-3.1l-1.5-0.5l-1.3-0.9l-0.8-1.5l-2.4-1.5l-1.5,0.7
	l-0.3-1.7H846l-4.2-2.8l-2.5-2.8l-0.3-1.3l0.1-1.5l0.8-1.3l0.7-2.4l1.1-2.1l-0.1-2.4l0.9-1.7v-0.5l-2.7-1.7l-1.3-0.1l-1.5-0.5
	l-0.7,0.1l-0.8,1.3l-1.5,0.4L833,351l-1.5-6.2l-0.8-1.3l-1.3-1.1l-3.5-2.1l-0.5-1.3l-1.5-0.9l-1.3-1.5l-1.9-1.3l-0.4-1.3l-0.8-1.5
	l-0.8-2.8l-0.5-0.7l-0.5-2.8v-2.7l0.3-1.5L818.6,320.6"/>
<path id="MO" class="st0" d="M747.6,318.2l18.2,0.1l11.5-0.3l25.2-1.5l10.8-1.2l0.8,1.5l2.7,2l1.1,1.5l0.7,0.3l-0.7,1.3l-0.3,1.5
	v2.7l0.5,2.8l0.5,0.7l0.8,2.8l0.8,1.5l0.4,1.3l1.9,1.3l1.3,1.5l1.5,0.9l0.5,1.3l3.5,2.1l1.3,1.1l0.8,1.3l1.5,6.2l1.1,1.3l1.5-0.4
	l0.8-1.3l0.7-0.1l1.5,0.5l1.3,0.1l2.7,1.7v0.5l-0.9,1.7l0.1,2.4l-1.1,2.1l-0.7,2.4l-0.8,1.3l-0.1,1.5l0.3,1.3l2.5,2.8l4.2,2.8h0.8
	l0.3,1.7l1.5-0.7l2.4,1.5l0.8,1.5l1.3,0.9l1.5,0.5l0.3,3.1l1.6,2.7l-0.3,1.5l-0.9,1.5l1.7,2.8l2.1,2.8l1.3-0.7l2,1.1l0.3,1.2
	l-0.3,1.5l0.4,2l-1.3,1.1l0.7,1.3l-0.7,2l-1.5-0.5l-1.5,0.7l-0.4,1.7l-1.3,1.1l0.3-1.1l-0.7-1.3l-0.5,1.5l0.3,1.5l0.5,1.3l-1.5,0.5
	l0.8,1.5l-1.9,1.3l1.3,1.3l-0.8,1.3l-0.9,2.3l-10,1.1l-0.7-1.5l0.7-1.3l1.1-1.5l1.5-0.8l1.1-1.3v-1.5l-0.4-1.3l-1.1-1.3l-1.3-0.8
	l-31.3,2l-27.4,1.2l-17.3,0.4l-0.3-10.8l-1.1-46.5l-1.5-1.1l-1.2-0.4l-2.1-2.7v-1.5l-1.6-1.1l-1.3-1.7l-0.5-1.3l1.6-2.3l0.5-1.3
	l1.5,0.1l0.1-0.4l-0.3-1.5l-0.9-1.5l-1.1-0.4l-1.3,0.9l-3.9-2.9l-1.6-1.2l0.1-1.3l-1.1-1.3l-0.3-1.5L751,325l-1.2-1.3l-0.9-2.7
	l-1.2-1.3L747.6,318.2"/>
<path id="AR" class="st0" d="M768.5,407.6l17.3-0.4l27.4-1.2l31.3-2l1.3,0.8l1.1,1.3l0.4,1.3v1.5l-1.1,1.3l-1.5,0.8l-1.1,1.5
	l-0.7,1.3l0.7,1.5l10-1.1l0.5,0.8l0.3,1.3l-1.5,0.5l0.8,1.5l-1.3,1.1l-1.3,0.7l-0.8,0.8v0.3l1.1,1.3l-0.9,0.8l-0.7,0.9l-0.9,0.5
	l0.8,1.3l-0.5,1.2l-0.5-0.9l-1.3,0.5l-0.3,1.5l1.3-0.4l-0.3,1.7l0.8,3.6l-0.3,0.5l-1.3,0.4l-0.7,1.3l-1.3,0.8l-0.1,0.4l0.5,0.4
	l0.3,1.5l-1.3,1.2l-1.5,0.7l-0.7-0.9l0.4,3.1l-1.1,0.1l-0.4-1.5v2l1.3,0.8l-1.3,0.7l-0.4-1.3l-0.1,2.1l0.9,0.7l-0.8,1.7l0.3,1.1
	l-1.1,1.5l-0.8,0.4h-1.3l0.3,1.3l-1.3,1.3l-0.3,0.8l-1.5-0.4l0.9,1.1l-0.5,0.4v1.3l0.7,1.3l-3.5,1.5l0.9,0.8l-0.3,1.5l0.3,1.2
	l-0.3,0.8h-1.5v1.1l1.5,0.4l-1.3,0.8l-0.4-0.5l-0.9,0.5l1.1,1.5l-1.3,0.9l0.9,1.3l-0.8,1.5l1.3-1.2l0.8,0.9l-1.3,0.9l1.3,0.4
	l0.1-0.1l-0.4,1.2l0.5,1.6l0.4,0.3l0.4,2.3l-0.1,0.3h-1.3l0.3,1.2l-0.1,1.9l-29.5,1.6l-22.4,0.8l-0.4-11.8l-4.4-0.8l-1.5,0.9
	l-1.3-1.1l-0.1-0.5l-0.5-0.4l-0.3-38l-0.7-6L768.5,407.6"/>
<path id="LA" class="st0" d="M826.9,556.9l-0.8,1.3l-1.5,0.4l-1.3-0.8l-1.5-0.5l-0.8-0.9l2.8-1.1l2.8,1.2l0.4,0.3L826.9,556.9
	 M780.8,483.7l0.7,22.1l2.4,2.1l0.9,1.3l1.1,2.8l-0.3,2.1l1.1,1.3l0.7,1.5l0.5,0.3l0.7,1.3v1.5l2.3,2.8l0.5,0.1l-0.1,1.3l0.4,1.5
	l-0.7,1.1l0.5,1.3l-0.5,1.3l0.3,1.5l-0.8,1.3l-0.3,1.5l-1.1,1.3l-0.7,1.5l0.4,2.7l-0.9,1.5l0.7,1.7l0.7,3.3l-0.4,1.6l-1.3,1.5
	l-0.2,0.6l0.2,2.4l-1.3,0.7l0.1,1.3l1.1,1.3l1.3-0.9l6.6-0.7l0.5-0.8l-1.3-0.9l1.3-1.1l0.3-3.5l1.2,1.3l0.5,1.3v1.3l-1.3,0.7
	l-0.1,0.7l1,0.5l1.5,0.1l2.8,0.7l2.8,1.1l1.5,0.8l2.4,0.8l7,1.1l1.3-0.1l2-1.1h1.3l-0.9-2.1l-1.3-1.1l1.5-0.1l0.5-0.5l1.5-0.7
	l2.8-0.9l-0.3,1.5l0.1,0.8l1.3-0.4l2.8-0.3l0.4,1.5l1.3,0.7l0.5,2h1.5l2.7,0.9l1.2-1.1l-0.1,1.5l0.9,1.3l1.5,0.9l0.7,1.5l-0.4,1.3
	l1.1,0.7l1.5-0.5l2.7,1.7l1.5-0.7h0.4l1.5,0.8l1.1-0.7v-1.9l0.4-1.5l1.5-0.1l1.3-0.5l0.7-0.3l0.5,1.5l1.3-0.5l1.5,0.4l-0.1,2.1
	l0.7,1.3l1.2-0.5l1.3-1.1l0.7-1.3l-0.9-1.3l1.3-0.4l-0.4-2.7l-2.8-1.6l-0.3-1.3l0.1-0.1l5,2l1.3,0.3l1.3,0.7l0.7,0.5l-0.9,1.5h1.5
	l1.3-0.4l0.9,1.5l1.6,0.3l1.3-0.4l0.4,1.3l0.9,1.5l1.1,0.1l0.4-1.6l0.7,1.5l-0.9,1.3l-1.1,2.8l1.3-1.3l0.5-1.3l1.1-1.5l1.9,2.3
	l0.3-1.3l0.7-1.5l-0.1-0.8l1.3-0.4l-0.1-0.4l-1.3-0.4l-0.7-1.3l-1.2-0.8l-2.7-0.4l-1.5-0.8l-1.7,0.1l-0.7-1.5l-1.5-0.7l-1.6-0.4
	l-0.5-1.5l1.3-0.5l-0.4-0.9l1.5-0.1l1.3,0.5l-0.9-1.1l-0.7-1.3l1.5-1.3l1.3,0.3l0.4,0.4l0.4-1.5v-1.3l-1.2-0.7l-0.1-1.6l-0.4-1.3
	l-2.1,1.5l-0.1,1.5l-0.5,1.3h-1.3l-0.7-1.3l-1.3,0.3l-1.1-0.9l-0.1-0.4l2.9-1.7l0.4-0.9l-0.3-0.1l-1.2,0.4l-2.4-0.8l-1.2,1.3
	l-1.3,0.5l-4,0.4h-2.1l-1.7-0.8l-0.1-1.3l1.2-1.3l1.9-2.9l1.3-0.4l1.9,0.3l1.5,0.9l1.3,1.2h1.3l0.9,0.5l0.5-0.4l1.3,1.2l1.5,0.1
	l2.1-0.5l-0.7-0.4l-0.9-0.7l-0.8-1.3l0.1-0.7l-0.8-1.3l-0.4-1.5l-2-1.7l-0.8-1.3l-0.5-1.5l0.5-2.4l0.9-2.8l0.3-1.5l-0.1-0.3
	l-17.4,1.3l-18.2,1.1l1.3-1.5l-0.9-1.3l0.3-1.5l-0.9-1.5l2-0.4l0.4-1.1l-1.2-1.3l1.6-0.1l-0.7-2.8l1.3-1.1l0.3-0.5l-1.3-0.1l1.5-0.9
	l0.3-1.3l1.3-1.3l-0.9-0.7l0.5-1.3l1.2-0.5l3.2-3.5l-0.1-0.3l-1.3-0.5l1.3-0.1l0.1-0.5l1.1-1.6l-1.5,0.3l-1.3-0.3l0.8-1.3l1.5-0.5
	l1.1-1.3h1.1l0.1-0.4l-0.3-0.3l-1.3-0.4l-0.4-1.1l-1.3-0.7l-0.7-1.3l0.1-0.3l1.3,0.4l-0.9-1.3l1.1-1.3l-2.4,0.4l-0.4-0.9l1.6-1.7
	l-1.6-0.8l-0.1-1.5l1.2-1.2l-0.1-1.3l-1.1-0.3l-1.3,0.9l0.3-1.3l0.5-0.7l-29.5,1.6L780.8,483.7 M838.1,563.2l-0.4-1.3l-1.2-1.5
	l-1.3,1.3l-0.1,0.7l1.3,0.9l1.3,0.1L838.1,563.2"/>
<path id="MS" class="st0" d="M832.7,481.3l0.1-1.9l-0.3-1.2h1.3l0.1-0.3l-0.4-2.3l-0.4-0.3l-0.5-1.6l0.4-1.2l-0.1,0.1l-1.3-0.4
	l1.3-0.9l-0.8-0.9l-1.3,1.2l0.8-1.5l-0.9-1.3l1.3-0.9l-1.1-1.5l0.9-0.5l0.4,0.5l1.3-0.8l-1.5-0.4v-1.1h1.5l0.3-0.8l-0.3-1.2l0.3-1.5
	l-0.9-0.8l3.5-1.5l-0.7-1.3v-1.3l0.5-0.4l-0.9-1.1l1.5,0.4l0.3-0.8l1.3-1.3l-0.3-1.3h1.3l0.8-0.4l1.1-1.5l-0.3-1.1l0.8-1.7l-0.9-0.7
	l0.1-2.1l0.4,1.3l1.3-0.7l-1.3-0.8v-2l0.4,1.5l1.1-0.1l-0.4-3.1l0.7,0.9l1.5-0.7l1.3-1.2l-0.3-1.5l-0.5-0.4l24.2-1.9l12.9-1.2
	l0.3,0.1l0.7,0.9l1.3,0.8l-1.2,65.7l4.3,32.3l0.1,0.7l-0.8,1.5l-2.8-1.1l-0.4,0.5l-1.3,0.5l-1.3-0.4l-1.5-1.1l-0.9,0.8l-2.8,0.5
	l-2.8,1.2l-1.3,0.1l-0.7,0.1l-0.4,0.7l-1.5,1.2l-0.5,1.3l-1.3,0.1l-0.7-0.4l-0.9-0.7l-0.8-1.3l0.1-0.7l-0.8-1.3l-0.4-1.5l-2-1.7
	l-0.8-1.3l-0.5-1.5l0.5-2.4l0.9-2.8l0.3-1.5l-0.1-0.3l-17.4,1.3l-18.2,1.1l1.3-1.5l-0.9-1.3l0.3-1.5l-0.9-1.5l2-0.4l0.4-1.1
	l-1.2-1.3l1.6-0.1l-0.7-2.8l1.3-1.1l0.3-0.5l-1.3-0.1l1.5-0.9l0.3-1.3l1.3-1.3l-0.9-0.7l0.5-1.3l1.2-0.5l3.2-3.5l-0.1-0.3l-1.3-0.5
	l1.3-0.1l0.1-0.5l1.1-1.6l-1.5,0.3l-1.3-0.3l0.8-1.3l1.5-0.5l1.1-1.3h1.1l0.1-0.4l-0.3-0.3l-1.3-0.4l-0.4-1.1l-1.3-0.7l-0.7-1.3
	l0.1-0.3l1.3,0.4l-0.9-1.3l1.1-1.3l-2.4,0.4l-0.4-0.9l1.6-1.7l-1.6-0.8l-0.1-1.5l1.2-1.2l-0.1-1.3l-1.1-0.3l-1.3,0.9l0.3-1.3
	L832.7,481.3"/>
<path id="AL" class="st0" d="M882.6,434l-0.1-0.5l25.4-2l19.7-2.3l6.6,20.6l6.6,23.7l0.4,0.7l0.4,1.5l0.9,1.5l1.1,2.7l1.7,1.6
	l0.3,0.5l0.7,1.6l-0.3,2.1l1.3,0.7l0.3,1.3l-1.3,1.1l-0.8,1.3l0.1,2.7l-0.5,1.5l-0.4,2.7l0.9,2.7l1.1,1.5l0.7,2l-0.4,1.3l0.1,1.3
	l-0.4,3.1l0.4,1.5l1.1,1.3l1.2,2.1v0.7l-29,3.5l-17.3,1.7l-1.3,1.1l-0.4,1.7l2.1,2.8l1.3,0.7l1.3,1.3l-0.7,2l0.5,1.3l-0.4,2.5
	l-1.3,1.2l-1.5-0.3l0.3,0.4l-0.4,1.3l-1.3,0.8l-5.6,0.7l0.9-0.7l1.3-0.3l1.5-0.1l0.3-1.3l-0.9-1.5l-0.4,0.3l-1.5-0.8l-0.7-1.3
	l0.5-1.3l-0.3-1.3l-0.8-1.3l-0.7-0.1l-0.8-1.1l0.1,0.7l-0.5,1.2l-0.3,1.5l-0.3,5h-1.3l-2.7-0.5l-1.3,0.3l-0.1-0.7l-4.3-32.3
	l1.2-65.7l-1.3-0.8L882.6,434"/>
<path id="TN" class="st0" d="M845.2,437l0.1-0.4l1.3-0.8l0.7-1.3l1.3-0.4l0.3-0.5l-0.8-3.6l0.3-1.7l-1.3,0.4l0.3-1.5l1.3-0.5
	l0.5,0.9l0.5-1.2l-0.8-1.3l0.9-0.5l0.7-0.9l0.9-0.8l-1.1-1.3V421l0.8-0.8l1.3-0.7l1.3-1.1l-0.8-1.5l1.5-0.5l-0.3-1.3l-0.5-0.8
	l0.9-2.3l0.8-1.3l-1.3-1.3l1.9-1.3l-0.8-1.5l1.5-0.5l-0.5-1.3l-0.3-1.5l1.2-0.1l-0.3,1.1l1.3-1.1l23.7-2l0.1-1.5l-0.9-2.7h2.9
	l1.6,0.5l7.2-0.9l7-0.5l8.7-1.2l8.4-0.4l8.6-0.8l4.7-0.8l7.6-0.4l5.6-0.5l5.5-0.8l6.2-0.4l1.9-0.7l5.4-0.8l2.8-0.1l11.6-1.7l7-1.1
	l5.5-1.3l2-0.1l-0.7,1.9l0.1,1.5l-0.5,2.5l-1.3,0.5l-1.2,1.3l-0.9,2.9l-1.3,1.5l-1.2-0.9l-2.7,1.1l-1.3,1.1l-0.5,1.3l-1.3,1.5h-0.9
	l-1.3-1.3l-1.3,0.8l-0.5,0.7l-0.3,1.3l-1.5-0.4l-0.5,2.8l-0.8,1.3h-1.3l-2.7,1.9l-3.9,3.9l-1.2,0.5l-2.8,0.1l-2.8,1.6l-1.2,1.3
	l-0.5,1.5l-0.3,1.9l-1.2,1.3l-2.8,0.8v5.6l-7,0.5l-15.8,2l-19.7,2.3l-25.4,2l0.1,0.5l-0.3-0.1l-12.9,1.2L845.2,437"/>
<path id="KY" class="st0" d="M858.2,403.1l0.4-1.7l1.5-0.7l1.5,0.5l0.7-2l-0.7-1.3l1.3-1.1l-0.4-2l0.3-1.5l-0.3-1.2l-0.8-0.8v-1.5
	l2-2.7l1.3-0.5l1.5,0.3l1.3,0.7l2.7,0.8l1.2,0.8l1.3,0.3l1.1-1.7l-0.4-1.3l-1.1-1.3l-0.3-1.5l0.4-1.3l1.3-0.5l1.5-0.9l2.7-0.7
	l0.9-1.3l-1.1-1.5l-0.3-1.5l0.9-1.3l0.5-1.3v-0.5l1.5,0.3l0.8-1.3l-0.5-1.3l2.8,0.4l1.3-0.8l0.3,1.5l1.3-0.5l-0.4-1.3l1.9-0.1
	l1.3-0.7l4.3,1.6l1.3,1.1l0.8-1.3v-0.5l0.9-1.3l1.3-0.5l1.2-1.1l1.1,1.5l1.3,0.3l1.5,0.9l0.3-1.5l1.1-1.3l-0.1-1.5l1.1-1.3l1.5-0.9
	l-0.7-1.3l1.3,0.7l1.2,2.1l1.3,0.5l2.8,0.3l1.3-0.8l0.3-1.5l-0.1-1.5l0.9-2.8l1.5,0.1l1.3-1.2l0.4-2.8l1.5-0.8l1.1-1.3l0.4-1.5
	l-0.5-1.6l-0.1-1.5l1.3-0.1l1.3-0.5l1.6,1.1l2.7-2.1l2.9-0.8l0.3-1.3l-1.3-1.5l0.5-1.3l-0.9-1.7l0.7-0.7l1.9-1.1l1.3,0.9l2.3-0.7
	l3.3,1.3l0.8,1.6l2.1,2.8l1.5,0.3l2.8-0.3l0.8,0.1l2.8,2.3l1.5-0.1l0.9-1.3l1.3-0.1l1.7,0.3l1.3,1.2l1.3-0.7h1.3l0.8-1.3l1.5-1.3
	l1.6-0.8l1.1,2.4l1.3,1.3l1.3,0.1l1.3,1.2l1.1,1.3l0.1,0.9l0.5,0.7l0.1,1.5l-0.7,2.7l2.9,3.1l0.4,1.3l1.3,1.3l2.9,3.7l2.8,2l2.8,0.1
	l-5.4,6.3l-4.8,3.6l-0.9,1.5l-0.1,1.5l-1.6,1.2l-0.1,1.3l-1.1,1.3l-1.3,0.7l-1.3,1.1l-0.3,1.5l-3.3,1.3l-1.3,1.1l-1.5,0.3L957,390
	l-1.9,0.7L949,391l-5.5,0.8l-5.6,0.5l-7.6,0.4l-4.7,0.8l-8.6,0.8l-8.4,0.4l-8.7,1.2l-7,0.5l-7.2,0.9l-1.6-0.5h-2.9l0.9,2.7l-0.1,1.5
	L858.2,403.1"/>
<path id="IN" class="st0" d="M879.4,372.6l-0.9-1.5l0.7-1.3l0.1-2.7l0.3-0.1l0.4-2.8l-0.3-0.3l0.3-1.5l1.3-1.2l1.1-1.3l1.7-2.9
	l0.1-1.5l1.5-2.7l0.4-0.3l0.3-1.5l-0.9-2.8l0.3-1.5l-1.2-1.3l-1.1-1.7l-0.1-1.5l0.8-1.5l-0.7-1.3l1.3-1.5l-4.8-50.7v-0.7l1.9,1.3
	l1.9,0.4l1.5-0.4l2.8-1.5l2.8-2h0.7l7.9-0.8l22.6-2.8l1.6,1.2l2.5,20.2l4.1,36.4l-0.7,0.7l0.9,1.7l-0.5,1.3l1.3,1.5l-0.3,1.3
	l-2.9,0.8l-2.7,2.1l-1.6-1.1l-1.3,0.5l-1.3,0.1l0.1,1.5l0.5,1.6l-0.4,1.5l-1.1,1.3l-1.5,0.8l-0.4,2.8l-1.3,1.2l-1.5-0.1l-0.9,2.8
	l0.1,1.5l-0.3,1.5l-1.3,0.8l-2.8-0.3l-1.3-0.5l-1.2-2.1l-1.3-0.7l0.7,1.3l-1.5,0.9l-1.1,1.3l0.1,1.5l-1.1,1.3l-0.3,1.5l-1.5-0.9
	l-1.3-0.3l-1.1-1.5l-1.2,1.1L897,368l-0.9,1.3v0.5l-0.8,1.3l-1.3-1.1l-4.3-1.6l-1.3,0.7l-1.9,0.1l0.4,1.3l-1.3,0.5l-0.3-1.5
	l-1.3,0.8l-2.8-0.4l0.5,1.3l-0.8,1.3L879.4,372.6"/>
<path id="OH" class="st0" d="M923.5,281.9l14.6-2.4l6.6-1.3l0.4,0.5l2.9,0.4l1.3,0.7l2,0.4l1.3,1.1l1.5,0.3l1.3-1.3l1.2,1.3
	l-2.1,0.5l-1.3,1.3l1.3,0.1l1.3-1.2h2.8l1.6,0.8l1.3,0.3l1.3-1.1l1.5-0.5l1.3-0.9l2.9-1.3l1.3,0.3l2.8-0.4l2.7-2.4l1.5-2.1l1.2-1.3
	l1.3-1.1l2.8-2l8.2-4.8l0.1,0.8l4.8,28.1l-0.9,0.7H994l-0.4,1.3l0.9,1.2l0.9,4.1l-0.5,1.5l-0.7,4.1l0.3,1.5l-0.1,1.7l-0.7,0.1
	l0.3,1.3l-0.3,1.3l0.1,1.5l-0.5,2.7l-1.7,1.6l-1.7,2.8l-2.7,2.4l-2.4-0.9l-1.2,1.7v1.3l-2,1.1l-0.5,1.3v1.5L980,332l1.1,1.3
	l-0.8,1.3l-0.5,1.5l-1.5-2.1l-1.3-0.5L976,335l-0.5,1.3v1.5l-0.4,0.5l-0.4,1.5l0.5,0.8l0.3,2.7l-1.5,0.9v1.5L973,347l-2,0.9
	l-1.3,0.3l-0.1-0.1l-1.1-1.3l-1.3-1.2l-1.3-0.1l-1.3-1.3l-1.1-2.4l-1.6,0.8l-1.5,1.3l-0.8,1.3h-1.3l-1.3,0.7l-1.3-1.2l-1.7-0.3
	l-1.3,0.1l-0.9,1.3l-1.5,0.1l-2.8-2.3l-0.8-0.1l-2.8,0.3l-1.5-0.3l-2.1-2.8l-0.8-1.6l-3.3-1.3l-2.3,0.7l-1.3-0.9l-1.9,1.1l-4.1-36.4
	L923.5,281.9"/>
<path id="FL" class="st0" d="M1030,643.4l2.1-0.3l-2.4,1.6L1030,643.4z M1034.1,641.8l-0.9,0.5l1.2,0.3l1.6-2L1034.1,641.8z
	 M1036.9,638.3l1.5,1.7h0.4l-0.4-0.9L1036.9,638.3z M1057.6,622.4l-1.6,0.8v1.5l-0.9,2.4l-2,2.8l-2.4,2.7l0.7,0l4.5-5.2
	L1057.6,622.4z M963.4,534.6l0.7-1.3l1.3-1.1l2.7-0.3l1.5-0.4l0.8,0.1l3.1,1.6l1.3,0.1l2.8,1.7l2,2.8l2.9,1.3l0.7,1.5l0.1,1.3l4,2.7
	l1.2,1.6l1.3,0.5l0.8,1.3l1.3,0.4l2.8-0.3l2.1,2v1.3l1.1,1.3l1.5,0.7l0.1,1.5l0.3,0.7l0.3,4.2l0.4,1.3l-0.1,1.6l-1.5,7.1l0.4,1.2
	v2.8l-0.7,2.3l0.9,1.5l0.9,0.8l0.1-0.9l1.7,1.2l0.1,0.5l0.9-1.3l0.7-2.8h-1.3l-0.4-0.3v-1.3l-0.9-1.1v-0.3l2.9,1.5l0.4,1.3l1.3-1.3
	l1.2,1.3l0.3,1.2l-2.4,4.2l-0.4,2.3l-1.3,0.5v0.6l-1-0.2l0.6,0.8l2.7,1.3l0.8,1.3l-0.3,0.5l3.1,5.1l0.9,1.3l2.1,2.3l1.3,0.4l1.3-0.1
	l0.5,0.3l-0.4-1.3l-0.8-1.3l-1.3-0.9l1.5,0.1l0.7,0.9l1.3-0.1l0.9,1.3l-0.1,2.8l0.3,1.5l0.7,1.3l-0.1,0.9l1.3-0.1l1.7-0.8l-1.1,1.3
	l0.1,0.8l1.3,0.4l1.3,1.2l1.5,5.2l3.3,4.2l1.5-0.4l1.5,0.1l0.8,0.1l2.7,1.1l0.4,1.3l1.3,1.1l1.7,2.4l0.7,1.5l2.4,2.7l1.2,0.4h1.5
	l1.3,1.1l-0.8,1.3l-1.7-0.8l-1.3-1.1l-1.1,1.3l0.5,1.3l1.3,1.5l2.8-0.9l1.7-1.1l1.3,0.3h1.5l1.3-0.7l1.1-1.2l1.3-0.9l0.7,0.4
	l0.8,0.1l0.8,0.1l-0.4-1.1l0.5-1.5l0.9-1.3l-0.9-2.7l0.4-0.8l-0.3-1.3l0.7-1.5l0.1-1.3l1.1-1.2l-0.1-1.3l0.4-1.5l0.5,1.5l0.1-1.3
	l-0.4-1.7l-0.3-2.8v-4.2l-0.3-1.5l-0.3-6.4l-1.6-5.2l-0.7-0.4l-0.3-1.7l-2.3-2.8l-1.5-2.3l-1.7-2.7l-2.3-4.8l-5.4-7.6l-4.2-6.7
	l-0.8-1.3l-1.7-4.2l-0.9-2.8h0.5l1.3,0.8l-0.3,1.3l1.5,1.3l1.1-0.1l1,0.9l0.3,1.1l0.1,2.8l1.1,4.1l2.8,4.4l0.9-0.1l-1.6-2.9l-1-1.4
	l-0.9-2.2l-0.6-2.6l0.9-1.4l-0.7-1.5l-0.9-1.3l-2.7-2.8l-7.8-9.8l-4.4-7.4l-2.1-4.2l-2.1-5.1l-0.4-1.5l-1.5-2.8l-0.4-2.5l-0.7-1.3
	l-1.3-1.9l0.3-2.8l-1.6-0.5l-0.7,0.1l-0.7,0.1l-1.3-0.1l-3.6-0.8l-1.5-0.5l-1.1,1.1h-0.7l-0.4,1.5l0.1,1.3l0.8,1.3l0.3,1.3l-0.1,2.9
	l-1.3,0.9l-1.3-0.1l-1.1-2.8l-1.5-0.9l-47.8,3.5l-1.1-1.3l-0.3-1.3l-2-3.1l-29,3.5l-17.3,1.7l-1.3,1.1l-0.4,1.7l2.1,2.8l1.3,0.7
	l1.3,1.3l-0.7,2l0.5,1.3l1.3,0.5l0.1,0.7l-1.3,1.3l-0.7,1.3l0.8,0.1l1.5-0.5l1.3-0.8l1.2-1.9l0.7-1.5l-0.3-0.5l-0.1-0.1l0.8-0.8
	l0.7,1.9l0.8-1.3l0.5-1.6l0.3,1.3l1.5,1.3l-1.1,1.3l-2.1,0.5l-0.2,0.6l1.5,0l4-1.5l3.6-0.4l0.7-0.1l2.8-2.5l0.4,1.2l1.3-0.7l1.5-0.4
	l2.4,1.1l0.7,1.2l-1.2-0.3l-1.5-0.7l-1.3,0.3l-0.3,0.8l-1.8-0.1l0.3,0.4l1.3,0.2l5.6,1l3.5,1.2l2.8,1.6l-0.3-1.3l-1.3-0.8l-0.7-1.1
	l1.3-0.3l1.3,0.7l2.1-1.6l-0.3,1.3l-1.1,0.4l-0.7,1.2l2,1.3l1.5-0.3l1,0.9l1.2,0.5l-0.8,0.9l-1.5-0.9l-2.8-1.1l1.3,1.3l1.3,0.7
	l0.4,0.4l-0.4,0.2l1.5,0.8l1.3,0.4l1.3,1.3l0.8,1.5l0.3,1.3l-1.1,0.1l-0.4-1.1l-0.4-0.9l-0.1,1l0.5,1.3l1.3,0.5l1.5-0.1l0.5-0.4
	l2.8-0.8l1.3-0.1l0.3-0.7l1.5-1.2l0.3,0.7l1.3-0.1l4.2-3.5l1.5-0.4l0.9-0.4l1.5,0.4L963.4,534.6z"/>
<path id="GA" class="st0" d="M927.6,429.2l15.8-2l7-0.5l21.4-3.3l-0.3,1.1l-2.7,3.9l-0.4,1.5l0.7,1.3l1.5,0.8l1.3,0.3l2.7,2.1l2-0.3
	l1.5,1.2l0.7,1.3l1.3,1.6l0.5,1.3l3.6,4.4l2.8,1.9l2.7,1.3l1.3,1.5l0.9,1.6l0.9,0.8l1.5,0.3l2,1.6l1.2,0.7l-0.1,0.9l0.5,1.3l1.5,0.8
	l0.3,1.3l1.5,0.5v0.3l1.3,1.3l1.3,0.4l2.9,1.7l0.1,1.3l1.6,2.1l0.7,1.5v1.3l0.4,1.5l1.3,0.9l2,0.8l1.1,1.5l0.7,1.5l1.1,1.5l-0.1,1.3
	l0.3,1.3l0.9,1.3l2.8,0.4l0.7,0.4l0.7,0.3l1.1,0.1l-0.7,1.3l-1.3,0.9l0.1,1.3l-1.3,0.1l-1.3-0.7v1.5l1.3,0.9l-1.1,1.6l-1.5,0.3
	l0.3,1.3l1.3-0.5l0.1,0.7l-0.5,1.5l-1.5-0.9l0.7,1.3l-1.3,1.2l0.7,0.7l1.3-0.4l-0.9,2.7l-0.8-0.1v1.5l1.1,0.9l-0.4,1.3l-1.2,2.1
	l-1.3-0.8l-0.5,1.3l1.9,0.1l-0.7,1.5l0.1,1.7l-0.7,1.3l-0.3,1.3l0.9,1.3l-0.1,1.5l-0.7,0.1l-0.7,0.1l-1.3-0.1l-3.6-0.8l-1.5-0.5
	l-1.1,1.1h-0.7l-0.4,1.5l0.1,1.3l0.8,1.3l0.3,1.3l-0.1,2.9l-1.3,0.9l-1.3-0.1l-1.1-2.8l-1.5-0.9l-47.8,3.5l-1.1-1.3l-0.3-1.3l-2-3.1
	v-0.7l-1.2-2.1l-1.1-1.3l-0.4-1.5l0.4-3.1l-0.1-1.3l0.4-1.3l-0.7-2l-1.1-1.5l-0.9-2.7l0.4-2.7l0.5-1.5l-0.1-2.7l0.8-1.3l1.3-1.1
	l-0.3-1.3l-1.3-0.7l0.3-2.1l-0.7-1.6l-0.3-0.5l-1.7-1.6l-1.1-2.7l-0.9-1.5l-0.4-1.5l-0.4-0.7l-6.6-23.7L927.6,429.2"/>
<path id="SC" class="st0" d="M971.7,423.3l4.4-2.3l1.5-0.1l2.1-2l2.8-0.9l1.3-0.8l1.3-0.4l15.7-1.7l5.9-0.4l1.3,1.3l1.3-0.5l2.3,2.1
	l0.5,1.5l0.1,1.3l0.4,0.4l19.4-3.1l22.2,15.8l0.7,0.5v0.8l-1.3,0.8l-3.1,3.2l-2.9,5.5l-0.7,1.5l-0.1,4.6l-0.5-1.3l-1.3-0.5l0.9,1.5
	l1.1,1.3l-1.2,1.3l-1.3,1.6l-0.5,1.3l-1.3,0.4l-1.3-0.4l-0.9,1.3l0.5,1.5l-0.9,0.7l-0.8,1.3l-1.2,1.3l-1.3,0.3l-0.5-1.3h-1.2l0.5,2
	l1.3,0.5l-0.7,1.5l-1.3,0.7l0.1,0.8l-1.6,0.4l-1.3,1.1l-1.7,1.3l-1.3,0.1l-1.3,0.7l-1.7-0.4l-2.7,1.2l1.1-0.1l1.3,0.7h1.5l0.5,0.7
	l-0.3,2.3l-1.5,1.1l-1.3-0.8l-0.8-1.6l-0.3,1.8l-1.7-0.9l0.4,1.3l0.7,0.9l1.3,1.1l-0.9,1.3l-0.9,0.1l-0.3-0.7l-0.3,0.7l-0.7,2.8
	l-0.7-0.3l-0.7-0.4l-2.8-0.4l-0.9-1.3l-0.3-1.3l0.1-1.3l-1.1-1.5l-0.7-1.5l-1.1-1.5l-2-0.8l-1.3-0.9l-0.4-1.5v-1.3l-0.7-1.5
	l-1.6-2.1l-0.1-1.3l-2.9-1.7l-1.3-0.4l-1.3-1.3v-0.3l-1.5-0.5l-0.3-1.3l-1.5-0.8l-0.5-1.3l0.1-0.9l-1.2-0.7l-2-1.6l-1.5-0.3
	l-0.9-0.8l-0.9-1.6l-1.3-1.5l-2.7-1.3l-2.8-1.9l-3.6-4.4l-0.5-1.3l-1.3-1.6l-0.7-1.3l-1.5-1.2l-2,0.3l-2.7-2.1l-1.3-0.3l-1.5-0.8
	l-0.7-1.3l0.4-1.5l2.7-3.9L971.7,423.3"/>
<path id="NC" class="st0" d="M950.3,426.7V421l2.8-0.8l1.2-1.3l0.3-1.9l0.5-1.5l1.2-1.3l2.8-1.6l2.8-0.1l1.2-0.5l3.9-3.9l2.7-1.9
	h1.3l0.8-1.3l0.5-2.8l1.5,0.4l0.3-1.3l0.5-0.7l1.3-0.8l1.3,1.3h0.9l1.3-1.5l0.5-1.3l1.3-1.1l2.7-1.1l1.2,0.9l1.3-1.5l0.9-2.9
	l1.2-1.3l1.3-0.5l0.5-2.5l-0.1-1.5l0.7-1.9l2.8,0.1l5.4-0.5l13.8-2l37.8-7l19.1-3.9l16.9-3.7l0.3,1.3l1.1,1.3l1.5,0.3v0.7l2.7,4
	l0.1,1.5l-1.1-1.9l-2.8-2.1l0.9,1.3l1.3,1.3h-1.7l-2.8-1.7l-1.5,0.3l1.3,0.4l1.5,1.2v1.2l-1.3,0.5l-1.5-0.5l1.1,1.3l-2-0.4h-1.3
	l1.5,0.9l-3.1,2.5l-1.5-0.5l-1.3,0.1l-1.3-2.7l0.1-1.3l-0.3-0.4l0.1-0.3l-0.7-0.8l0.5,1.1l-0.5,1.2l0.3,1.3l0.8,1.5l1.1,1.3l0.3,1.5
	l1.5-0.3l1.3-0.5l1.5-0.9l2.8,0.7l0.3-1.3l2.1-0.8l1.5,0.1l0.3,1.3v1.6l-0.7,1.3l1.3,0.5l-0.9,1.3l0.5,0.7l1.3-1.3l-0.4-2.7v-1.5
	l2-0.3l0.3-0.9l-0.1-0.8l1.5,1.3l0.9,1.3l0.3,2.8l0.4,1.2l-1.2,1.3l-1.3-0.4v1.3l-1.9,4.3l-1.2,1.3l-3.1-0.1l-1.3-0.3l-0.8-1.3
	l-0.1,1.5l-1.5-0.4l-1.3-1.2l0.8-0.9l-1.3,0.1l0.1,1.3l0.5,1.3l-0.9-0.3l-1.3,0.5l-2.7-0.1l-2.9-0.8l-0.1,0.3l0.4,0.5l6.2,1.6h1.3
	l2.9,1.1l-0.5,1.5l-1.5,0.3l-0.4,1.1l1.3-0.3v1.3l-2.1,2.7l-0.9,0.7l-1.5-0.1l-1.6-1.2l-1.5-0.5l-1.2-0.8l1.1,1.3l2.3,2.1l2.8,0.3
	l2.8-1.7l1.3,0.7l-0.4-1.3l1.1-0.3l-0.1-0.1l0.4-1.3l0.7,1.3l-0.4,1.3l1.3-0.3l0.7-1.5l0.5-0.1l0.5,1.1l-0.5,1.5l-1.2,1.3l-1.2,2.7
	l-0.5,0.1l-1.5-0.9l-0.5,1.5l-0.7-1.5l-1.1,1.3l-0.1,0.7h-1.3l-3.3,1.7l-1.5-0.5l-1.3,2.7l-0.9,1.3l-0.4,0.3l-1.5-0.5l0.3,1.7
	l-2.9,2.5l-1.9,2.8l-1.2,2.8l-0.4,1.5v4.1l-0.9-1.9l-0.3,2.8l-1.3,0.9h-2.4l-2.7,0.7l-2.8,1.2l-0.8,0.1l-0.7-0.5l-22.2-15.8
	l-19.4,3.1l-0.4-0.4l-0.1-1.3l-0.5-1.5l-2.3-2.1l-1.3,0.5l-1.3-1.3l-5.9,0.4l-15.7,1.7l-1.3,0.4l-1.3,0.8l-2.8,0.9l-2.1,2l-1.5,0.1
	l-4.4,2.3L950.3,426.7 M1089.6,367.2l2.5,5.5l0.9,1.1l1.2,2.7l1.3,1.3l-0.5,0.5l1.3,0.5l1.3,1.5l0.8,1.5l0.3-0.4l-0.4-1.8l-3.5-4.1
	l-1.8-2.6l-2.4-5.6l-0.6-0.2L1089.6,367.2 M1101.9,394l0.7-2.9l-0.5-4.1l-0.5-1.8l-1.6-2.4l0.3,1.3l0.8,1.5l0.3,1.3l0.4,5.2
	l-0.7,1.3l-1.3,1.2l0.3,0.3L1101.9,394z"/>
<path id="WV" class="st0" d="M969.5,348.1l0.1,0.1l1.3-0.3l2-0.9l1.1-1.3v-1.5l1.5-0.9l-0.3-2.7l-0.5-0.8l0.4-1.5l0.4-0.5v-1.5
	l0.5-1.3l0.9-1.5l1.3,0.5l1.5,2.1l0.5-1.5l0.8-1.3L980,332l0.9-1.5v-1.5l0.5-1.3l2-1.1v-1.3l1.2-1.7l2.4,0.9l2.7-2.4l1.7-2.8
	l1.7-1.6l0.5-2.7l-0.1-1.5l0.3-1.3l-0.3-1.3l0.7-0.1l0.1-1.7l-0.3-1.5l0.7-4.1l0.5-1.5l-0.9-4.1l-0.9-1.2l0.4-1.3h0.7l0.9-0.7
	l3.5,19.8l17-3.1l1.9,11.2l1.2-1.5l1.3-1.2l0.8-1.3l1.3-1.5l0.5-1.3l1.2-0.5l1.3,0.3l1.9-2.8l0.1-1.3l0.4-0.1l1.5,1.3l1.3,0.3
	l2.1-0.3l0.3-1.3l1.2-1.5h1.5l0.7-1.5l1.1-0.5l1.5,0.5l1.3,0.9l2.8-0.3l0.1,0.1l-0.4,1.5l1.3,0.3l0.1,1.5l1.2,1.2l0.3,0.8l-0.4,2.5
	l-0.9,1.5l-7.6-4.1l-1.5,0.7l0.3,1.3l-0.5,1.5l0.1,2.8l-0.9,1.5l-0.9,2.7l-1.1,1.3l-1.2,0.1l-1.2,2.8l-1.3,0.4l-1.5-0.1l-0.5,1.3
	l-0.3,2l-0.7,1.3l-0.5,2.9l-0.7,1.3l-1.3,0.5l-2.8-0.4l-0.1-0.7l-1.3-1.2l-1.5,0.4v2.8l-0.3,1.5l-0.5,0.5l-0.8,2.8l-0.9,1.3
	l-0.1,1.5l-0.7,2.8l-1.3,1.9l-1.5,2.8l-0.5,2.5l1.1,1.5l-1.1,1.3l0.4,1.3l-0.3,0.3l-2.7,1.9l-1.5-0.3l-2.7,2.3l-2.1-0.7v1.3
	l-0.4,1.2l-1.3,0.4l-3.1,1.5l-1.3,0.1l-2.3-0.9l-0.7,1.3l-2.7,1.9l-2-0.4l-2.8-1.6l-1.5-1.3l-1.2-1.5l0.1-1.3l-2.8-0.1l-2.8-2
	l-2.9-3.7l-1.3-1.3l-0.4-1.3l-2.9-3.1l0.7-2.7l-0.1-1.5l-0.5-0.7L969.5,348.1"/>
<path id="VA" class="st0" d="M957,390l2.7-1.9l1.5-0.3l1.3-1.1l3.3-1.3l0.3-1.5l1.3-1.1l1.3-0.7l1.1-1.3l0.1-1.3l1.6-1.2l0.1-1.5
	l0.9-1.5l4.8-3.6l5.4-6.3l-0.1,1.3l1.2,1.5l1.5,1.3l2.8,1.6l2,0.4l2.7-1.9l0.7-1.3l2.3,0.9l1.3-0.1l3.1-1.5l1.3-0.4l0.4-1.2v-1.3
	l2.1,0.7l2.7-2.3l1.5,0.3l2.7-1.9l0.3-0.3l-0.4-1.3l1.1-1.3l-1.1-1.5l0.5-2.5l1.5-2.8l1.3-1.9l0.7-2.8l0.1-1.5l0.9-1.3l0.8-2.8
	l0.5-0.5l0.3-1.5v-2.8l1.5-0.4l1.3,1.2l0.1,0.7l2.8,0.4l1.3-0.5l0.7-1.3l0.5-2.9l0.7-1.3l0.3-2l0.5-1.3l1.5,0.1l1.3-0.4l1.2-2.8
	l1.2-0.1l1.1-1.3l0.9-2.7l0.9-1.5l-0.1-2.8l0.5-1.5l-0.3-1.3l1.5-0.7l7.6,4.1l0.9-1.5l0.4-2.5h2.9l1.3,0.9l0.7,1.3l-0.3,1.3l1.5,0.9
	l1.9-0.1l1.5,0.7l1.1,0.8l1.2,0.3l1.2,0.7l0.9,0.7l0.3,1.2l0.3,1.7l-1.1,1.3l-0.4,0.8l-0.4,0.5l-0.4,0.1l-0.8-0.5l-0.5,4.1l0.3,1.3
	l-0.5,0.1l0.5,1.3l1.3,0.1l0.9-0.4l1.6-1.2h1.5v1.3l2.3,2l0.8,0.3l1.5-0.1l0.4,0.3l2.7-0.5l0.3,0.7l1.3,0.9v0.8h1.3v0.5l1.3,0.1
	l2.9,1.1v1.5l-1.3-0.3l0.8,1.3l0.1,1.5l-0.8,2l-1.5-0.5l-0.1-0.4l-1.3-0.1l-2.8-2.1l-0.9-0.1l-1.2-1.5l-1.3-0.5l-1.6-1.3l0.8,1.3
	l0.8,0.8l1.5,0.7l1.1,1.5l2.8,1.3l0.4,0.8l1.3,1.1l1.3-0.1l1.5,1.2l-0.5,0.4l1.3,0.4l1.3-0.1l0.7,2.5l-0.3,1.3l-1.3-1.1l-1.3-0.3
	l-0.5,0.4l1.2,1.3l-0.7,1.5l-2.8-1.2l-2.7-2.4l-1.5-0.3l2.9,2.3l1.2,1.3l2.8,1.1l1.5-0.4l0.4,1.3l1.5,0.5l0.5,1.3l-0.4,1.5l-0.9,0.3
	l-0.7,0.8l-1.3-1.5l-1.5-0.5l-1.3-1.2l-1.1-1.5l-1.3,1.1l-1.3-0.8l-1.3-1.2l-0.1,1.5h-0.7l-1.5-1.2l-2.8,0.5l-1.3-0.3l-0.4,0.7h4.3
	l2.7,1.1l1.2-0.3l1.3,0.5l1.5-0.5l0.5,1.3l0.9,1.5l0.1-0.1l1.3,0.9l1.3,1.3l-0.4,1.3l1.5-1.3l1.1,0.1l1.3,0.7l-0.5-0.8l0.4-1.6
	l1.3,0.3l3.9-0.1l1.9,2.7l2.4,4.4l-0.6-0.2l-0.5,0.1l-0.7-1.5l-1.3-1.1l0.1,1.5l0.4,1.3l-0.7,0.3l-0.8-0.7l0.4,0.7l-16.9,3.7
	l-19.1,3.9l-37.8,7l-13.8,2l-5.4,0.5l-2.8-0.1l-2,0.1l-5.5,1.3l-7,1.1l-11.6,1.7l-2.8,0.1L957,390 M1086.3,349.4l0.3-1.5l0.7-1.3
	l0.3-1.3l1.3,0.9l0.1-0.1l0.4-1.5l-0.1-2.7l0.5-2.8l0.9-2l-0.1-1.3l0.4-2l-2.9,1.1l-1.3,1.3l-1.2,1.3l1.3,0.9l-0.3,1.5h-1.3
	l-0.1,2.8l-1.1,2.4l-0.1,2.8l0.3,1.5l-0.4,0.4l0.1,2.8l1.5,2l1.2-2.7L1086.3,349.4 M1093,333.1l-0.7,1.3l-0.1,1.3l-0.7,1.3l1.3-0.8
	l1-3.1L1093,333.1"/>
<path id="MD" class="st0" d="M1016.1,311.3l28.1-5.4l31.9-6.8l4.6,15.8l2.3,9.5l0.8,1.5l9.9-2.3l-0.3,0.5l-0.7,0.5l1.3,1.2l-0.7,2.8
	l-0.7-0.4l-0.7,2.8l-1.1,1.3l0.1,1.3l-2.9,1.1l-1.3,1.3h-1.2l-2.7,0.9v-0.9l0.9-1.5l0.5-1.3l-1.3,0.5l-0.5-0.9l-1.3,0.8l-0.3-1.3
	l1.2-1.5l-0.9-0.4v-2.7l-1.2,2.8l-0.7-0.7v-1.3l-0.5,1.3l0.4,1.5l-1.2-0.5l-1.3-1.1l-1.3-0.7l0.4,1.3l-1.3-1.5v-1.5l0.7-2.7
	l-1.5,0.8l0.4-1.5l3.5,0.3l0.9-1.3l-1.3,0.7l-1.7-0.5l-0.5-1.3l-0.8-0.5l-1.3,0.3l-0.3,1.5l-0.7-1.3l0.3-1.5l1.3-0.5l1.3,1.1
	l-0.7-1.3l0.9-1.2l-1.3-0.1l-0.9-1.3l-0.4,0.5l-1.2,0.8l-0.3,1.3v-2.8l1.2-0.3l1.5-1.2l-0.3-0.5v-1.3l-0.5-0.1l-0.5,1.3l-0.9-1.5
	l0.7-4.1l1.2-1.3l1.3-0.3l1.3-0.7l-1.9-0.1l1.9-2.8l-0.4-0.5l-1.3,1.1l0.3-1.3l-0.8,0.4l-1.3,0.3l-0.1,0.8l0.9,1.5l-1.1,1.3
	l-1.3,0.4l-0.1-1.3l-0.5,0.8v2.1l-1.2-1.5l-0.4,0.8l0.3,0.8l-0.1,1.7l-1.3-0.3l1.3,1.2h-1.3l-0.4-0.3l-1.5,0.4l3.3,2l-0.3,1.5
	l1.3,0.8l-0.5,0.1l-1.5-0.3l-0.3,0.3l1.1,0.8l-0.1,2.5l0.5,1.3l-0.4,1.3l0.8,1.3l0.8,3.1l2.7,2.7l-0.8,1.3l-0.7-0.9l-1.3-0.4
	l-1.5-0.9l-1.5-2.8l-0.4-1.3v0.8l0.9,2.8l0.9,1.3l2,1.1l1.5,1.2l1.3,0.5l1.7,2.7l-0.4,1.2l-1.3-1.1l-1.5-0.1l-0.4,0.3l-1.2-1.3
	l-1.3-0.1l-1.5,0.5l-1.3-1.3l-0.5-1.3l-0.3,0.8v1.3l-1.5-0.9l-1.1-1.3l-0.8-1.5l-1.3,0.5l-0.1,0.9l-1.1,1.5l-1.2-1.3l-0.3-1.5
	l0.4-1.3l0.4-0.3l0.8-1.3l0.1-1.3l1.1-1.3l-0.3-1.7l0.8-1.2l0.1-1.2l-1.6-1.1l-1.7,0.9l-1.2-0.3l-1.1-0.8l-1.5-0.7l-1.9,0.1
	l-1.5-0.9l0.3-1.3l-0.7-1.3l-1.3-0.9h-2.9l-0.3-0.8l-1.2-1.2l-0.1-1.5l-1.3-0.3l0.4-1.5l-0.1-0.1l-2.8,0.3l-1.3-0.9l-1.5-0.5
	l-1.1,0.5l-0.7,1.5h-1.5l-1.2,1.5l-0.3,1.3l-2.1,0.3l-1.3-0.3l-1.5-1.3l-0.4,0.1l-0.1,1.3l-1.9,2.8l-1.3-0.3l-1.2,0.5l-0.5,1.3
	l-1.3,1.5l-0.8,1.3l-1.3,1.2l-1.2,1.5L1016.1,311.3 M1093,333.1l0.8,0.1l0.3-1.7l0.5-4.3l-0.9,1.5L1093,333.1"/>
<path id="DC" class="st0" d="M1057.8,320.4l1.7-0.9l1.6,1.1l-0.1,1.2l-0.8,1.2l-0.3-1.2l-0.9-0.7L1057.8,320.4z"/>
<path id="DE" class="st0" d="M1076,299.1l0.4-1.3l0.8-1.3l1.3-0.8l1.3-0.3l1.1,0.1l0.5,0.4l-0.7,0.7l-0.4,1.2l-0.3,1.6l-0.7,0.9
	l1.1,1.3l-0.1,1.3l0.8,1.3l1.2,1.3l1.3,1.1l0.9,1.3l0.1,1.5l0.8,2.1l1.5,1.2l0.5,1.3l2.7,2.1l1.5-0.1l0.5,0.8l-0.5,1.3v1.3l0.7,0.1
	l-1.2,1.5l0.7-0.4l1.5-0.3l0.9,2.8h-0.4l-0.4,0.1l-9.9,2.3l-0.8-1.5l-2.3-9.5L1076,299.1"/>
<path id="PA" class="st0" d="M990.6,265.6l1.9-1.1l2.8-2.3l1.3-1.5l0.1,0.4l4.7-3.7l0.1,0.5l0.9,5.1l12.9-2.3l19.7-3.9l22.2-4.7
	l14.7-3.3l0.1,0.3l1.3,0.7l0.7,1.3l1.2-0.3l1.5,1.2l1.5,2.9l0.3,1.3l1.2,1.5l2.5,1.1l1.3,0.1l1.6,0.7v0.5l-1.5,1.7l-0.5,1.3v1.3
	l-1.6,3.6l-1.3,1.3l0.5,1.1l0.5,0.3l0.7,1.3l-0.4,1.3l-1.1,1.3l0.4,2.3l1.2,1.5l1.5,0.5l0.3,1.3l1.3,0.9l0.8,0.3l1.3,1.3l3.2,2.4
	l-0.8,1.3l-1.6,1.5l-1.1,1.5l-0.4,0.1v0.1l-0.1,0.1l-1.1,1.2v1.3l-1.3,1.2l-1.3,0.4l-1.3,1.5l-0.5-0.4l-1.1-0.1l-1.3,0.3l-1.3,0.8
	l-0.8,1.3l-0.4,1.3l-31.9,6.8l-28.1,5.4l-17,3.1l-3.5-19.8l-4.8-28.1L990.6,265.6"/>
<path id="NJ" class="st0" d="M1080.4,300.3l0.4-0.9l0.3-2l0.8-1.1l-0.4-0.4l1.3-1.5l1.3-0.4l1.3-1.2v-1.3l1.1-1.2l0.1-0.1V290
	l0.4-0.1l1.1-1.5l1.6-1.5l0.8-1.3l-3.2-2.4l-1.3-1.3l-0.8-0.3l-1.3-0.9l-0.3-1.3l-1.5-0.5l-1.2-1.5l-0.4-2.3l1.1-1.3l0.4-1.3
	l-0.7-1.3l-0.5-0.3l-0.5-1.1l1.3-1.3l1.6-3.6v-1.3l0.5-1.3l1.5-1.7l14,4.7l0.2,1.5l-0.3,1.5l-0.3,2l0.4,0.9l-1.3,1.3l-0.4-0.1
	l-0.8,1.6v3.9l1.1,0.3l1.3-0.4l2.8,0.4l0.4,1.7v4.3l0.9,1.3l0.1,3.3l-0.4,1.6l-0.4-2.1l0.1-1.3l-0.5-1.2l-0.3,1.3l-0.5,0.3l0.5,1.3
	l0.3,2.1l-0.4,1.3l0.7,1.3l-0.5,1.3l-0.9,1.5l-0.3,1.6l-1.3,0.5l0.5,1.3l-0.9,1.3l0.7,1.2l-1.3,0.1l-1.1,1.3l-0.1,0.7l0.7,0.3
	l-0.7,1.3l-0.5,2.8l-0.9,1.5l-0.3,1.3l-0.8,1.1l-1.3,0.1l-0.1-1.5l0.5-2.3l-0.5-1.5h-2.8l-1.3,0.7l-2.4-1.9l-1.3-0.7l-1.5-0.4
	l-2.3-2.1l0.2-0.7l0-0.4l-0.8-1.3L1080.4,300.3z"/>
<path id="NY" class="st0" d="M1001.5,257.4l0.5-0.4l3.1-3.1l2.3-2.8l1.7-1.7l1.1-1.3l0.7-1.5l2.4-2.7v-1.5l-1.7-3.1l0.7-0.9
	l-0.1-0.5l-2.9-0.5l0.1-1.1l-0.8-2.5v-0.1l1.5-0.7l1.3-0.9l1.5-0.4l1.3-0.8l2.9-1.2l5.4-1.1l5.6-0.3l3.6,1.5l2.8-1.6l2.8-0.7
	l2.8-0.1l1.1,0.4l0.9-1.3l1.3-0.8l1.2-1.3l0.8-1.5l1.7-1.3l1.5-1.6h1.5l0.9-1.3l-0.1-1.5l-0.5-1.3l-0.1-0.9l-1.3-2.8l1.3-0.5
	l0.3-1.3l0.8-1.3l-1.9,0.9l-0.1-2l-1.5,0.7l0.3,1.5l-0.3-0.8l-1.3-1.1l0.3-1.3l2.5-2.7l1.5-1.2l0.5-1.1l2.1-2.8l-0.1-1.7l4.4-7.4
	l5-5.4l2.8-1.5h1.3l9.8-2.1l10.6-2.9l0.3,0.7l0.4,1.1l-0.3,1.5l1.1,1.5l0.1,3.2l0.5,1.5l1.3,1.3l0.4,1.3l-0.1,1.5l0.5,1.5l0.1,1.3
	l-0.5,0.7v2.8l0.9,2.8l0.8,1.3l0.8,2.8l-0.3,2.4l0.7,1.5l0.7-1.6l2.1,1.9l3.1,14.1l-0.1,0.9l0.9,1.3l-0.3,1.5l-0.1,13.4l0.5,0.8
	l2.8,15.7l0.9,1.5v1.5l-2.3,2.3v0.5l1.5,1.5l-1.5,2.9l-0.1,1.6l-1.5,0.5l-0.7,1l-0.5,0l0.6-2.4l-0.3-4.3l-0.7-2.1l-1.5-0.9l-0.4-1.3
	l-0.1,0.4l0.3,1.3l1.3,1.3l0.5,3.3l-14-4.7v-0.5l-1.6-0.7l-1.3-0.1l-2.5-1.1l-1.2-1.5l-0.3-1.3l-1.5-2.9l-1.5-1.2l-1.2,0.3l-0.7-1.3
	l-1.3-0.7l-0.1-0.3l-14.7,3.3l-22.2,4.7l-19.7,3.9l-12.9,2.3l-0.9-5.1L1001.5,257.4 M1109.2,269.9l0.5-0.1l1.6-1.2l1.3-0.5l2.9-1.7
	l1.5-0.5l1.5-1.1l1.3-0.1l2.8-2l0.3-1.1l1.5-0.3l2.7-2.4l1.5-0.9l1.9-2.3l-1.5,1.1l-1.3,0.5l-0.4-0.4l-1.5,0.4l-1.3,0.8l-1.7,2.8
	l-0.9,0.4l-1.3,0.1l0.9-1.3l1.5-1.2v-1.5l1.3-2.4l-4.1,5l-2.8,1.2l-4.2,0.9l-1.3,0.5l-0.7,1.3h-1.3l-2.8,1.5l-1.2-0.3l-1.3,1.1
	l0.1,1.3l-1.3-0.4l-0.5,1.5l-2.4,1.6l-0.5,1.7l-0.1,1.3l0.5,0.3l1.9-0.4l0.3,0.7l1.9-1.2L1109.2,269.9"/>
<path id="CT" class="st0" d="M1100.8,240.7l9.2-2h1.3l2.7-0.9l0.8,0.1l1.5-0.7l8-2l1.9-0.4l0.9,0.1l3.1,11l0.3,1.5l-0.4,1.1l0.1,0.5
	l0.1,0.7l-0.8-0.3l-2.8,0.9l-2.8,1.7l-1.2-0.3l-0.3-0.5l-0.7-0.3l0.5,1.1v0.8l-4.3,1.1l-0.7,0.7h-1.5l-1.3,0.8l-1.5,0.3l-2.1,2.8
	l-0.8-0.5l-1.1,1.5l-1.5,0.8l-2.5,2.8l-1.3,0.5l-1.5-1.5v-0.5l2.3-2.3v-1.5l-0.9-1.5L1100.8,240.7"/>
<path id="RI" class="st0" d="M1127.2,235l5.4-1.6l1.3,0.9l0.5,1.3l0.8,0.4l0.1,1.1l0.9,0.9l0.1,0.1l0.2,1.1l-1.9-1.3l0.4,0.9
	l-0.5,1.3l0.8,1.5l0.1,1.3l0.5,1.9l-0.3,1.5l-4,2.7l-1.3,0.7l-0.1-0.7l-0.1-0.5l0.4-1.1l-0.3-1.5L1127.2,235 M1138.4,239.5l0.7,2.8
	l0.7,1.5l0.7-1.1l-0.1-0.8l-0.7-2L1138.4,239.5z M1137,243.3l0.6,1.7l0.9-0.5l-0.4-0.9l-0.2-1.5l-0.8-1.4L1137,243.3z"/>
<path id="MA" class="st0" d="M1100.7,225l12.2-2.5l17.8-4.1l1.7-2l0.8-1.5l0.4,0.1l0.9-1.5l1.5-0.9l0.7-0.1h0.7l-0.3,1.3l1.1,0.7
	l0.3,1.3l1.3,1.1l1.1-0.3l0.3-0.3l1-0.2l-0.3,1.5l-2.7,1.9l-0.7,1.3l0.3,0.5l-1.2,1.5l0.7,1.3h-1.5l0.9,1.3l1.3,0.8l1.5-0.8l1.5,0.3
	l2.7,2.5l0.4,0.7l-0.6,0.1v1.3l1.3,0.7l1.3,0.3l1.3,2.7l0.8,0.5l1.5-0.1l1.3,0.4l2.8-2.1l0.9-1.1l-0.7-2.3l-0.9-0.1l-0.5-1.5
	l-1.5-0.9l-0.5-0.3l0.5-0.3l1.3,0.4l1.5,1.1l1.9,2.5l0.8,2.7l-0.8,1.5l-1.6,0.5l-4.2,2.3l-0.5,0.2l-0.4,1l-1.3,0.9l-1.5,0.5
	l-0.7-2.8l-0.3-1.2l-1.1,0.8l-0.7,1.3l-1.3,1.1l-0.8,2.3l-1.3-0.1l-0.9,1.5l-0.1-0.8l-0.7-2l-1.2-0.4l0.4-1.3l-0.1-0.6l-0.5,0.3
	l-0.8,1l-1.1-0.7l-0.1-0.1l-0.9-0.9l-0.1-1.1l-0.8-0.4l-0.5-1.3l-1.3-0.9l-5.4,1.6l-0.9-0.1l-1.9,0.4l-8,2l-1.5,0.7l-0.8-0.1
	l-2.7,0.9h-1.3l-9.2,2l-0.5-0.8l0.1-13.4L1100.7,225 M1149.7,241.1l-1.1,0.1l-0.9,1.3l-1.2,2.4l2.8-1.3l1.5-1.2L1149.7,241.1z
	 M1159.6,243.1l0.5-0.4l-1.1-1.3l-0.9-0.8l0.3,0.4l-0.1,1.5l-1.3,1.2L1159.6,243.1"/>
<path id="NH" class="st0" d="M1112.8,222.5l-1.3-1.3l-0.8-1.6v-1.6l0.7-1.3l-0.8-4.1v-2.8l-1.2-4.8l0.7-1.3l-0.3-2.1l0.8-1.5
	l0.4-1.3l-0.1-1.5l0.5-1.3l-0.3-1.5l0.5-2.4l-0.8-2.8l-0.1-1.5l1.3-1.3l0.5-0.1l2.4-2.7l1.1-2l0.1-1.3l-0.5-1.3l-1.1-1.3l-0.3-1.5
	l0.8-2.8l-0.9-2l0.4-0.7l0.1-0.1l-0.3-1.3l0.7-2.8v-1.3l1.3-1.1l1.3,0.4l1.3-1.5l0.3,0.7l10.3,31.3l1.6,4.1v1.5l0.4,1.3l0.7,1.3
	l1.3,1.2l1.5,0.7l0.1,1.3l1.3,1.5l0.7,0.3l0.7,0.4l-0.7,2.8v1.3h-0.7l-0.7,0.1l-1.5,0.9l-0.9,1.5l-0.4-0.1l-0.8,1.5l-1.7,2
	L1112.8,222.5"/>
<path id="VT" class="st0" d="M1087.1,177.8l5.4-1.6l22.1-5.8l-0.4,0.7l0.9,2l-0.8,2.8l0.3,1.5l1.1,1.3l0.5,1.3l-0.1,1.3l-1.1,2
	l-2.4,2.7l-0.5,0.1l-1.3,1.3l0.1,1.5l0.8,2.8l-0.5,2.4l0.3,1.5l-0.5,1.3l0.1,1.5l-0.4,1.3l-0.8,1.5l0.3,2.1l-0.7,1.3l1.2,4.8v2.8
	l0.8,4.1l-0.7,1.3v1.6l0.8,1.6l1.3,1.3l-12.2,2.5l-0.9-1.3l0.1-0.9l-3.1-14.1l-2.1-1.9l-0.7,1.6l-0.7-1.5l0.3-2.4l-0.8-2.8l-0.8-1.3
	l-0.9-2.8v-2.8l0.5-0.7l-0.1-1.3l-0.5-1.5l0.1-1.5l-0.4-1.3l-1.3-1.3l-0.5-1.5l-0.1-3.2l-1.1-1.5l0.3-1.5l-0.4-1.1L1087.1,177.8"/>
<path id="ME" class="st0" d="M1119.1,162.7l1.1-1.3l1.3,0.7l1.3-0.5l-0.3-1.3l0.3-1.3l0.4-0.1l1.3,0.5l-1.5-2.8l0.3-0.3l0.3-1.5
	l0.8-1.3l2.3-2.8l-0.7-1.1l1.6-2.9l-1.2-1.3v-2.8l-0.8-1.3l0.7-4.2l1.2-2l-0.9-5.8l6.4-19l1.3-0.3l1.3,0.1l0.8,2.8l1.6,1.2l1.6,0.4
	l1.3-1.3l1.3-0.5l1.2-1.5l1.3-0.7l1.1-1.5l1.6-0.7l1.5,0.4l2.8,1.2l2.8,2l1.2,0.3l6,18.3l1.7,4.7v1.3l0.8,1.3l-0.1,1.2l0.4,1.3
	l1.3-0.1l1.5,0.9h1.5l1.3-0.5l0.9,0.7l-0.4,1.5l0.4,1.3l1.1,1.3v1.5l0.8,1.5l1.5,1.2l1.1-1.2h1.1l0.9,0.3l0.3,0.3l2.5,2.7l-1.7,2.3
	l1.3,1.2l1.1-1.3l0.4-0.5l0.7,1.2l-0.1,1.3l-1.5,2.7l-1.3,0.9l-2.1-0.3l0.9,1.5l-1.3-0.3l-2.7,2.9l-0.3,1.3l-0.7-0.1l-1.2-1.5
	l-0.5,3.5l-2,0.3l0.5,1.3l-0.5,1.3l-0.9-1.5l-3.6-0.9l0.3,1.3l-1.3,1.2l-1.2-1.3l0.1,1.3l-0.4,1.5l0.3,1.3l0.8,1.5l-2-0.8h-2.8
	l0.7-0.9l0.1-1.5l-1.3,0.3l0.3-1.3l-1.1-1.3l0.4,2.3l-2,1.2l0.8,1.3l-0.1,1.5l-0.4,1.3l0.1,1.5l-0.3,1.5l0.7,1.3l-1.1,1.6l-0.5,1.3
	l-1.5-0.5l-1.5-0.1l-0.5,1.3l0.1,1.5l-0.3,1.3l-0.6-0.9l0-1.1l-0.5-0.7h-0.3l-0.3,0.8l0.7,2.7l-1.5-0.7l0.4-1.3l-0.8-1.3l-0.5,0.3
	l-0.4,1.9l1.1,1.5l-0.6,0.6l-1.4-3.6l-0.1-0.6l-0.9,0.2l-0.1,1.3l0.7,0l1.8,3.7l-0.7,0.7l-0.8-2.1l-0.4-0.1l-0.4,1.5l0,1.1l-0.6,0.4
	l-0.3-0.2l-0.7-2.5l-2.1,2.9l-0.4,1.5l0.1,1.3l0.9,0.4l-1.9,2.8l0.7,1.3l-1.1,2.5l-1.3,1.3v1.3l0.4,1.5l-0.5,1.5l-1.2,1.3l-0.7-0.3
	l-1.3-1.5l-0.1-1.3l-1.5-0.7l-1.3-1.2l-0.7-1.3l-0.4-1.3v-1.5l-1.6-4.1l-10.3-31.3L1119.1,162.7 M1166.4,168.5l-0.5-0.1l-1.5,2.7
	l0.4,1.3l2.8-1.3l0.3-1.5L1166.4,168.5z M1185.8,154.1l-0.1-0.1l-0.7,1.3l-0.1,1.5l0.7,1.5l1.2-1.5v-1.3L1185.8,154.1"/>
<path id="HI" class="st0" d="M503.4,653.7l-1-2.1l1.9-1.9l1.9-1.6l-0.2,1.9l-0.6,1l-1.9,1.9L503.4,653.7 M520.5,651.5l0.2-0.4
	l2.1-1.8l0.4-2.1l0.8-1.9v-0.6l-1.9-2.1h-1.9l-1.9-0.2l-1.9,1.2l-2.1,1.2l-0.2,0.4l-1.2,1.9l1.8,1.9l3.9,1.9L520.5,651.5
	 M557.8,666.5l1.9-0.6l1.9-0.6l-1.4-1.9l-0.4-1.9l-2.1,0.2l-0.6-1.9l-2.7-3.9l-2.1,0.8l-1.9,1.8h-1.9l-0.4,1l0.4,2.1l1.9,1.9
	l1.8,1.9l1.9-0.2l-0.2-1.4l1.9,0.8L557.8,666.5 M579.6,671.8l0.6-0.2l2.1-1l-0.2-1.9l-1.4,0.2h-1.9l-1.9-0.4l-2.1-0.4l-1.9-0.2
	l-1.9-0.2v0.8l-1.4,1.9h3.9l2.1-0.2l1.9,1L579.6,671.8 M578.7,679.4l0.4-0.2l1.9-1.9l-1.8-1.9l-1.9-0.6l-2.1,0.6l1.8,1.9
	L578.7,679.4 M590.9,683.1l1.4-0.2l2.1-1h1.9l1.2-0.6l1.9-1.9l-1-1.9l-1.9-1l-1.9-1.4l-0.4-0.6l-2.1-0.4l-1.9,0.8l-1.9-0.4l-1.4-1.9
	l-2.1-0.4l-0.8,1l-0.4,1.9l1.4,1.9l3.9,1.9h0.2l0.2,2.1L590.9,683.1 M607.5,722.2l1.9,0.6l1.6-1.9l0.8-1.9l2.1-1.2l1.2-1.2l2.1-1.6
	l1.9,0.2l2.1-0.6l2.1-0.8l1.9-1.8l0.6-0.6l1.9-1.4l-0.2-1.9l-1.9-1.2l-1.4-2.1l-1.2-1.2l-1.2-1.9l-0.8-1.9l-1.8-1.9l-5.8-2.9
	l-2.1-0.8l-1.9-0.4l-1.9-1.2l-2.1-1.6l-1-0.4l-1.2,1.9l0.4,1.9l1.6,2.1l-1.4,1.9l-1.2,1.9l-0.2,0.2l-1.9,1.4l-0.8,1.9l1.4,1.9
	l0.8,1.9l0.8,2.1v0.6l0.8,1.9l-0.2,2.1l-0.4,3.9l1,1.9l1.9,0.6l1.2,0.8L607.5,722.2"/>
<path id="AK" class="st0" d="M384.2,572.6l0.4-0.1l1-0.1l0.1,0.4l1.7,5.7l20.5,69.4l0.6,0.8l1.6,0.1l0.8-0.6l2.1-0.6l2.9-1l1.9,2.4
	l5.9,3.7l2.9,2l2.4-2.6l0.4-3.6l2.2-2.2l2.7,0.4l1.7,1.9l2.9,1.5l6.1,2.9l4.1,3.8l4.2,3.5l0.7,1.1l0.7,0.1l2.1,2.1l0.9,0.5l1.9-0.3
	l2.1,0.2l3.7,0.6l1.1-0.2l0.9,2.9l2.6,3.2v2.2l-0.9,2.9l-0.8,0.6l-1.4-1.1v-1.6l-1.2,0.3l0.3-1.4l-0.4-1.3l-1.9-2.6l-1.5-1l-1.3,1.4
	l-0.6,1.1l0.3,2l-1.3,0.4l-0.6-4.1l-0.7-1.6l-2.6-1.2l-0.7-1.1l-1.5-0.4l-1.3-1.4l-1,0.3h-2.1l0.1-1.2l-0.7-0.6l0.4-0.7l-1.6-0.5
	l-0.7-1.2l0.5-0.2l-1-1.2l-0.6,0.6l-0.7-1.2h-0.9l-0.9-2l-0.6,0.4l-0.5,0.7l-1.3-0.2l-1.1-0.4l-1.7-1.7l-2.1-2.5l-1.1-0.3l1.8,2.6
	l1.8,2.7l0.5,1.3l-1.4-0.1l-0.8-0.9l-1.3,1l-0.8-1.5l-1.2-1.8l-0.8,0.5l-0.8,0.8l0.7,0.9l1.3,0.3l0.7,1.1l-0.9,0.8l-0.7-0.3
	l-0.5,1.3l-5-1l-2.3-1.7l-2.7-1.2l-0.1-0.5l-0.7,0.3l-3.6-1.1l-2.5-0.4l0.9-1.1l-0.6-1.6l-1.7,0.9l-1,1.2l-2.2,0.1l-3.7-0.7
	l-0.8-0.2l-4.4,0.5l-4.2,1.5l-1.6-0.9l-2.5-0.4l-0.4-2.1l-0.8,0.3l-0.7,1.7l-1.9-0.4l-0.7-1.2h-1.3l-0.7-0.7l-1.2,0.3l-1-1.8h-1.5
	l-1.2,0.7l-0.7-0.6l0,1.4l-1.7-0.7l-1.5-0.9l-0.5,1.2l0.3,1.6l1,0.6l-0.7,1.2l1.7,0l-0.2,1.7l-0.1,2l-1,1.7l-2.7,0.3l-0.8-0.5
	l-1.1,2.1l-0.2,0.9l-0.7,0.4l-0.8,1.7l-1.5,0.2l-0.9,2.1l-1.5-0.1l-0.5,1.4h-1.9l-0.8-1.3l1.1-0.9l1.2,0.1l1-2.8l-1.8,0.7l-1.4-0.5
	l-0.2-1.8l1.2-2.9l0.4-2.3l-0.7-1.6l3-2.6l1.9,0.3l2.1-1.2l-1.9-1.8l-1.8,0.2l-2.9,2.1l-3,4l-1,2.6l-2.6,1l1.7,2.5l-1.7,1.3l-1,1.8
	l-1.9,1.1l-1.3,3.7l3,0.7l1.1,1.6l-2.3,2.3l-1.3,2.1l-1.9,2.9l-2.4,1.7l-1.7,1.6l-0.9,1.5l-1.7,0.4l-0.3,2.1l-2,2.5l-2.5,0.7
	l-1.4,2.2l-2.2,1.3l-1.3-0.1l0.3,2.5l-1.3,0.8l-1.5,1.7l-0.7-0.1l-1.4,0.7l-0.4,1.5l-0.7,0.7l0.2-0.7l-0.1-0.7l0.1-0.8l-0.7-0.2
	l-0.9,0.6l-0.4,0.8l-0.7,0.4h-0.7l-0.7,1.5l-0.4-0.8l-0.8,0.1l0.4,0.7l-0.7,0.1l-0.7-0.2l-0.7,0.7l-0.7,0.4l-0.7-0.1l-0.3-0.7
	l0.3-0.8l0.8,0.1l-0.6-0.8l-0.7-0.1l-0.7,0.7l-0.4,1.4l-0.6,0.7l-0.7,0.4l0.1,0.7l-0.8,0.4l-0.7,0.7l-0.7-0.2l-0.3-0.7l-0.3-1.5
	l-0.7,0.4l0.4,0.7l-0.2,0.8l0.3,0.7l-1.4,0.4l-0.2-0.7l-0.6-0.7l-0.7-0.1l-0.1,0.7l0.8,0.6l-0.6,0.7l-0.8,0.5l0.1-0.7l0.3-0.7
	l-0.1-0.8l0.4-0.7l0.8-0.4l0.7,0.3l0.1-0.8l1.5-0.6l0.5-0.7l0.1-0.7l1.2-1.4l2.3-1.7l2.2-0.6l0.7,0.3l0.7-0.1l-0.1,0.7l0.6,0.7
	l0.8,0.4l-0.2-0.7l0.8-0.3l0.7,0.6l0.8,0.1v-0.7l-0.7-0.4l-0.4-0.7l0.4-1.5l0.4-0.7l1.4-1.4l0.4-0.2l0.6-0.8l1.5-0.8l1.5-0.6
	l0.4-0.7l0.7-0.6l0.8,0.6l0.4-0.7v-0.8l0.1-0.7l0.9-1.4l0.6-0.7l2.1-2l0.7-0.4l0.1,0.8h0.8l0.4-0.8l-0.8,0.6l-0.1-0.8l-0.6-0.7
	l0.2-1.5l0.1-2.2l0.7-0.6l0.8-0.2l0.6,0.2l-0.8-0.4l-0.7,0.1l-0.4-0.7v-0.7l0.2-0.8l0.7-0.7l0.4-0.7l1.2-0.9l-0.3-0.7v-0.8l0.6-0.7
	l-0.1-0.6l0.3-0.7l-0.3,0.6v0.1L343,671l-0.5,0.7l-0.8,0.6l-2.2,1.1l-1.4,0.9h-0.7L337,674l-0.1-0.8l-0.8-0.4l0.3-1.4l0.7-0.6
	l0.7,0.2l0.3,0.7l0.4,0.1l-0.4-0.8l-1.5-0.6l-0.6-0.9l0.3,0.7l-0.6,1.4l-0.7-0.4l0.1,1.5l-0.4,0.7l0.4,1.1l0.4,0.7l-0.4,0.7h-0.8
	L334,676l-1.7-2.9l-0.8-0.5l-0.1-0.8l-0.7,0.7l-0.8,0.4l-0.1-0.6l-0.8-0.4l-0.4-0.7l-0.7-0.4l-1.5,1.2l-0.7,0.2l-0.7,0.5l-0.7,0.1
	l-0.5,0.8l-1.4,1.1l-1-0.6l0.6-0.9l0.2-0.8l-0.3-1.4l0.7-0.4l-1.4-1.3l-0.1-0.6l1.4-2.2l-1.3-2.9l-0.6-1.6l-0.2-1.5l-0.5-0.6
	l0.5-1.7l-0.7,0.4l-1,1.3l0.8,1.3l-0.8,1.2l-0.6,0l-3.1,1.3l-2-0.2l-1-0.8l0.2-1l-1.6-1.9l-1.9-1.6l0.1-0.8l-1.5-0.4l0.9-1.3l2-1.6
	l1,0.5l1.1,1.1l1.3-0.4l0.5,1.2l0.8,0.1l0.2-1.5l-0.8-1.3l-1.3,0.6l-1.7-0.2l-1.5-0.7h-0.8l-0.2-0.6l1.3-0.6l-1.3-0.3l0.2-0.8
	l-0.6-0.5l-0.6,0.6l-0.5,0.8l-0.6-1l0.1-0.5l-0.8-0.6l0.1-1.9l-1.1-0.6l0.1-1l0.6-0.4v-0.7l1.3-0.2l0.2-1.7l2.8-3.7l0.9,0.2l0.2-0.5
	l0.9-1l-1.2-0.3l0.4-0.9v-0.8l1-0.8h0.6l-0.4-1.1l0.6-0.7h1.4l1.2,0.6l0.4,1.1l0.7-0.1l1.1,0.4l2.4-2.4l1.8-1.4l0.7,0.5l0.7-0.1h1.5
	l0.7-0.6l1.1-1.5l0.2-0.7l-0.6-2.2l-0.5-2.1l-1.6-1.2l0.6-0.8l2.1-0.9l-1.1-2.5l-1.7,1.3h-1.4l-2.6,2.7l-1.7-1.6l-0.6,0.3l0.6,1.3
	l-2.4-1.4l-3,0.3l-4-0.5l-2.7-1.6l0.3-1.8l-1.6-1.9l2.8-1.4l-3.4-1.2l-2.7-2.2l0.9-0.5l1.5-1.3l1.9,0.1l0.4-1.8l3.6-0.3l-0.2-1.5
	l2.4-0.8l4.5-1l0.4,1.1l-0.5,2.3l1.5,1.4l2.5-0.3l0.6,1l2.3-0.5l1.2-1.6l1.7,0.5l-0.8-1.8l-2.4-0.4l-1.7-3l1,0l1.3,2.1l1.5,0.7
	l1.2-0.1l2-0.9l-2.7-0.4h-1.8l-0.6-1.5l0.3-1.8l-1.4,0.2l-1.9-0.5l-3.3-1.5l-0.6-2.8l-2.9-3.3l-2.6-2.1l-2.4-2l1.3-0.9l0.6-2.9
	l0.7-0.5l2.9,0.2l3.6-0.9l2.2-3l1.6-4.2l2.3-3.1l0.7,0.2l0.4,0.2l3.6-2.3l1.3-1.1l1.5-1.7l1.5,0.5l2.7-0.6l1.9-2.1l2-3.2l1.1,1.9
	l1.5,0.7l-1.2,1.6l1,0.8l1.1-2l1.5-0.2l0.5,1.7l0.7,0.2l2.7-0.8l2.9-0.1l0.2,1.8l0.3,0.8h1.3l1.3,0.8l3.2-0.6l2.5-0.7l2.2,0.3
	l2.9,0.9l2.6-0.1l3.1-0.6l2.4,1.3l2.7-1l1.7-1.1l2.5,0.2l2.6,1.4L384.2,572.6z M290.4,715.7l-0.1-0.2l-0.7-0.4l-0.7-0.1l-0.8,0.3
	l-0.7,0.6l-0.2,0.7l0.1,0.7l-1.5,0.1l-0.7,0.7l-0.1,0.8l-0.6,0.7l-0.7,0.6l1.5-0.6l0.7-0.5l0.7-0.2l0.7-0.7l0.6-0.8l0.7-0.1l1.5-0.9
	L290.4,715.7z M290.8,717.8l1.9-0.5l1.4-0.6l0.8-0.2h0.7l-0.1-0.7l0.8,0.4l0.4-0.8l0.7-0.3l0.8-0.1l-0.6-0.7l-0.7,0.5l0.1-0.8
	l0.7-0.4l0.7-0.6l-0.5-0.7l-0.6,0.7l-0.7-0.1l0.1-0.7L296,712l-0.8,0.1l-0.7,0.3l-0.6,0.8l0.5,0.7l0.7,0.1l0.7,0.4l-1.4-0.1l0.1,0.7
	l-0.7,0.5l0.7,0.3l-0.7,0.1l-1.5,0.6l-0.7,0.1l-0.7-0.1l-0.8,0.6L290.8,717.8 M298.4,714.8l0.3-0.4l0.1-0.7l-0.8,0.4L298.4,714.8z
	 M300.3,712.2l1.1-0.7l-0.8-0.4l-0.7-0.5l-0.6,0.7l0.3,0.7L300.3,712.2z M305.6,707.7l-0.1,0.7l0.2,0.7l0.8,0.4h0.7l0.8-0.2l0.4-0.7
	l0.8-0.6l0.7-0.2h0.8l1.5,0.2l0.7-0.3l0.2-0.7l0.7,0.5l0.7,0.3l-0.1-0.7l-0.7-0.1l-0.6-0.7l-0.1-0.8l-0.4-0.7l-0.8-0.4h-0.7
	l-1.4,0.6l-0.8,0.5l-0.7-0.3l-0.7,0.4l-0.7,1.4L305.6,707.7z M326.4,701.9l-0.5,0.1l-0.3,0.7v0.7l0.2,0.8l1.4-0.8l-0.4-0.7l0.2-0.8
	l-0.8,0.6L326.4,701.9z M300.2,661.1v0.1l1.4,1.2l0.7,0.1l0.7,0.4l0.1-0.3l0.8,0.1l1.4-0.5l0.7,0.1l-0.3-1.1l0.1-2.2l-0.7-0.4
	l-0.8,0.1l-0.7-0.6H303l-0.8,0.5h-0.7l-0.5,0.7l-1.5-0.3l-0.7,0.5l0.9,1.5L300.2,661.1 M438.6,655.8v0.2v0.7l2.8,3.9l2,1.9l0.6,2.4
	l0.9-0.5l0.4-1.5v-1.1l-0.6-2l-1.5-2.4l-1.4-0.8l-1.7,0.5L438.6,655.8z M448.1,665.9l1,2.2l0.9,0.7l1.1-0.6l0.5-0.9l-0.7-1.3l1,0.7
	h1l0.7-0.7l-1-1.4l-0.6,0.4l-1.6-1.4l-0.8,0.5l-2.3-0.2l-0.8,0.8l0.3,0.4L448.1,665.9z M445.8,667l0.6,1.1l0.8-0.1l-0.3,0.8l0.9,0.7
	l-0.4,1.3l1.5,1.9l0.5-1.8l-0.5-0.9l-0.3-2.3l-1.2-1.4l-1.4-0.4L445.8,667z M455.3,666.2l0.4,1.2l-0.8,0.4v1.5l1.2,0.4l1.5,0.6v-2.3
	l-0.5-0.9L455.3,666.2z M452.7,667.9l0.7,0.9l0.5,0.2l0.5-0.7l-0.4-1.3L452.7,667.9z M460.7,669.4l-0.2,0.7l0.9,0.1l-0.4,0.9
	l0.2,1.9l1.1,0.5l0.5-0.9l0.3,1l1.6-0.2l0.2-1l-0.8-1.8l-1.3-1.7l-1.1-0.8L460.7,669.4z M450.6,670.2l1.4,0.2l0.7,0.5l1.2,1.5
	l-0.2,1.5l0.6,0.8l0.7-0.7l1.2,1.2l-0.5,0.8l-0.1,0.7l1.5-0.4l0.7,0.4l0.4-0.6l1.2,2.1l0.4-0.3l1.5,0.6l0.7,0.9l0.8-0.6l-0.8-2.2
	h-0.9l0.2-1.5l-1.6-0.8l-0.8,0.2l-0.4-0.6l0.1-0.8l-1.1-0.7l-2.3-1.8l-1.7,0l-1.1-1.4l-2,0.2L450.6,670.2z M452,671.1l-0.7,0.5
	l-0.7,1.2l0.4,0.8l1-1l0.6-1L452,671.1z M456.4,679l1.7,1.7h1.6l-0.2-0.7l-1.2-0.6l-0.5-0.8l-1.8-1.2L456.4,679z M433.2,659.2v1.2
	l0.9,0.5l-0.5,1l1.6,1.6l0.9-0.1l0.3,0.7l1.3,1.1l0.4-1.4l-0.7-0.8l0.3-0.9l2.5,1l0.9-0.4c0,0-0.6-1.4-0.7-1.5s-0.6-0.4-0.6-0.4
	l-1.2,0.4l0.2-1.2l0.5-0.5l-0.9-1.2h-2.1l-1.4-0.2l-0.6,0.6L433.2,659.2z M438.7,665.1l0.4,0.5l0.9-0.3v0.7l0.9,0.7l0.1,0.6l0.4,1.5
	l0.7-0.2l0.4,1l0.8-0.4l1.4,2.3l1.2,0.5l0.3-0.6l-0.6-1.2l-0.2-1.2l-2.3-3.5l-1.4-1.7l-0.9-0.5l-0.7,0.4l-0.5-0.7l-0.9-0.1
	L438.7,665.1z M383.1,654.2l-0.9,2.5l-1.4,1.6l0.3,1.5l2.5-3l0.1-1.1L383.1,654.2z M353.6,684.6l0.9,0.7l0.3,1.8l1.3,0.6l0.6-1.7
	l0.9,0.9l-0.6,1.6l0.6,0.6l1.6-1.9L359,686l1.8-1.6h1.8v-1.7l1-0.1l1.3-1.2l-0.9-1.2l-0.5-1.5l-1.4,1l-0.5-1.3l-1.5,0.1v1.7
	l-1.7-0.5h-1.1l-0.1,2.2l-1.5-0.3L354,683L353.6,684.6z M359.8,677.1l2.2,1l0.9-1.4l1.1-0.7l0.9-0.3l0.3-1.1l-0.9-0.1h-1.8l-0.4-0.5
	l-0.7,0.7v1l-1.1,0.1L359.8,677.1z"/>
</svg>