<?xml version="1.0" encoding="UTF-8"?>
<!DOCTYPE svg PUBLIC "-//W3C//DTD SVG 1.1//EN" "http://www.w3.org/Graphics/SVG/1.1/DTD/svg11.dtd">
<!-- Creator: CorelDRAW X6 -->
<svg xmlns="http://www.w3.org/2000/svg" xml:space="preserve" height="25px" version="1.1" style="shape-rendering:geometricPrecision; text-rendering:geometricPrecision; image-rendering:optimizeQuality; fill-rule:evenodd; clip-rule:evenodd"
viewBox="0 0 8792 3931"
 xmlns:xlink="http://www.w3.org/1999/xlink">
 <defs>
  <style type="text/css">
   <![CDATA[
    .fil0 {fill:#FEFEFE;fill-rule:nonzero}
   ]]>
  </style>
 </defs>
 <g id="Layer_x0020_1">
  <metadata id="CorelCorpID_0Corel-Layer"/>
  <path class="fil0" d="M7717 3812l553 -819 -3295 0c-78,0 -178,53 -222,118l-553 820 3295 0c79,0 178,-52 222,-118zm-5970 118l1591 0c78,0 178,-52 222,-118l1564 -2318 -1006 0c-78,0 -178,53 -222,118l-1376 2040 227 -2158 -1043 0 -224 2139c-17,165 103,298 269,298zm1985 -3118l553 -819 -3510 0c-78,0 -178,53 -222,118l-553 819 3510 0c79,0 178,-52 222,-118zm5064 183c30,752 -785,1436 -1569,1436l-2015 0 553 -819c44,-65 143,-118 222,-118l1400 0c181,0 376,-167 358,-350 -15,-147 -134,-211 -259,-212l-3132 0 552 -819c44,-66 144,-118 223,-118l2567 0c552,0 1076,407 1100,1002z"/>
 </g>
</svg>
